<?xml version="1.0" encoding="utf-8"?>
<!-- Generator: Adobe Illustrator 27.5.0, SVG Export Plug-In . SVG Version: 6.00 Build 0)  -->
<svg version="1.1" xmlns="http://www.w3.org/2000/svg" xmlns:xlink="http://www.w3.org/1999/xlink" x="0px" y="0px"
	 viewBox="0 0 750 500" style="enable-background:new 0 0 750 500;" xml:space="preserve">
<g id="BACKGROUND">
</g>
<g id="OBJECTS">
	<g>
		<g>
			<rect x="188.362" y="215.743" style="fill:#332E2E;" width="6.513" height="152.42"/>
			<rect x="30" y="215.743" style="fill:#332E2E;" width="6.513" height="152.42"/>
			<rect x="30" y="117.887" style="opacity:0.33;fill:#C9DAF2;" width="166.338" height="103.81"/>
			<rect x="30" y="225.67" style="opacity:0.33;fill:#C9DAF2;" width="164.875" height="15.114"/>
		</g>
		<g>
			<g>
				<path style="fill:#332E2E;" d="M101.248,145.036c-0.013,0-0.027-0.002-0.04-0.007c-0.039-0.013-0.069-0.043-0.082-0.081
					c-0.296-0.876,0.097-1.774,0.477-2.643c0.48-1.097,0.933-2.134-0.014-3.042c-0.497-0.478-1.235-0.716-2.03-0.657
					c-1.33,0.101-2.648-0.316-3.734-1.084c-0.941,0.747-2.055,1.143-3.327,0.964c-1.021-0.143-1.922-0.668-2.793-1.176
					c-0.56-0.326-1.14-0.664-1.743-0.895c-2.741-1.046-5.701,0.154-7.559,1.628c-1.067,0.845-2.047,1.912-3.085,3.358
					c-0.286,0.399-0.768,0.566-1.231,0.427c-0.465-0.141-0.777-0.551-0.794-1.045l-0.003-0.077c-0.031-0.81-0.552-1.472-1.327-1.687
					c-0.597-0.166-1.422-0.06-1.943,0.737c-0.204,0.312-0.393,0.639-0.563,0.971c-0.704,1.382-2.42,1.965-3.906,1.324
					c-2.011-0.864-3.527-2.149-4.389-3.719c-0.332,0.364-0.638,0.712-0.894,1.041c-1.836,2.362-5.285,4.147-8.327,2.99
					c-1.548-0.589-2.767-2.206-3.033-4.024c-0.223-1.521,0.255-2.858,1.311-3.669c0.057-0.043,0.138-0.032,0.18,0.024
					c0.043,0.056,0.033,0.137-0.024,0.18c-0.98,0.753-1.422,2.002-1.213,3.428c0.254,1.729,1.407,3.264,2.87,3.821
					c2.924,1.111,6.255-0.621,8.033-2.908c0.277-0.356,0.61-0.732,0.969-1.125c-0.9-1.801-1.621-5.035-0.414-6.67
					c0.609-0.824,1.61-1.108,2.978-0.845c0.021,0.004,0.041,0.013,0.057,0.027c0.697,0.574,1.076,1.235,1.126,1.966
					c0.117,1.731-1.592,3.574-3.1,5.201c-0.114,0.122-0.225,0.243-0.335,0.363c0.001,0.002,0.002,0.005,0.004,0.007
					c0.828,1.55,2.316,2.822,4.303,3.676c1.363,0.585,2.932,0.056,3.575-1.205c0.174-0.341,0.368-0.676,0.577-0.995
					c0.491-0.752,1.368-1.084,2.227-0.844c0.885,0.245,1.48,1.001,1.516,1.924l0.003,0.077c0.016,0.465,0.326,0.722,0.611,0.809
					c0.282,0.085,0.681,0.044,0.948-0.33c1.052-1.466,2.048-2.549,3.134-3.41c1.914-1.516,4.973-2.75,7.81-1.666
					c0.623,0.238,1.212,0.581,1.781,0.913c0.889,0.518,1.729,1.007,2.698,1.143c1.134,0.159,2.162-0.194,3.056-0.884
					c-1.005-0.784-1.78-1.879-2.121-3.138c-0.613-2.26,0.249-4.845,2.096-6.285c0.936-0.731,1.956-0.95,2.727-0.586
					c1.547,0.732,1.181,3.033,0.951,3.989c-0.537,2.237-1.617,4.639-3.213,6.026c1.029,0.71,2.27,1.095,3.511,0.997
					c0.872-0.065,1.678,0.2,2.227,0.728c1.077,1.033,0.566,2.201,0.072,3.331c-0.335,0.765-0.68,1.554-0.516,2.289
					c3.399-2.354,7.535-3.547,11.665-3.375c0.879,0.038,1.77,0.138,2.632,0.234c1.473,0.166,2.996,0.337,4.485,0.195
					c1.71-0.162,3.29-0.832,4.334-1.838c0.867-0.835,2.158-1.01,3.21-0.435c2.261,1.231,5.183,1.26,7.444,0.069
					c1.158-0.608,2.624-0.537,3.922,0.191c1.487,0.834,2.749,1.18,3.967,1.085c0.91-0.07,1.837-0.568,2.493-1.293
					c-0.271-1.229-0.082-2.414,0.543-3.371c0.024-0.036,0.064-0.058,0.108-0.058h0c0.044,0,0.084,0.023,0.108,0.059
					c0.496,0.773,0.513,1.713,0.05,2.644c-0.141,0.283-0.32,0.55-0.528,0.796c0.018,0.073,0.038,0.146,0.059,0.22
					c0.444,1.523,1.57,2.853,2.938,3.47c2.818,1.271,6.008,0.191,8.056-1.243c1.163-0.815,2.248-1.863,3.415-3.297
					c0.316-0.388,0.816-0.57,1.308-0.481c0.472,0.089,0.841,0.413,0.987,0.867c0.811,2.518,3.513,4.551,6.152,4.628
					c3.363,0.098,6.768-1.792,10.161-5.616c0.047-0.053,0.128-0.059,0.181-0.01c0.053,0.047,0.058,0.128,0.01,0.181
					c-3.446,3.884-6.938,5.796-10.36,5.703c-2.742-0.08-5.548-2.191-6.39-4.806c-0.117-0.363-0.412-0.621-0.789-0.693
					c-0.401-0.074-0.805,0.075-1.06,0.391c-1.182,1.452-2.284,2.515-3.467,3.345c-2.105,1.475-5.394,2.583-8.309,1.266
					c-1.435-0.648-2.615-2.04-3.08-3.633c-0.007-0.022-0.013-0.044-0.019-0.066c-0.691,0.705-1.627,1.184-2.546,1.254
					c-1.272,0.099-2.579-0.257-4.112-1.117c-1.224-0.686-2.597-0.756-3.677-0.188c-2.334,1.23-5.351,1.203-7.687-0.07
					c-0.954-0.521-2.123-0.363-2.908,0.394c-1.086,1.046-2.722,1.742-4.489,1.909c-1.516,0.143-3.053-0.028-4.538-0.195
					c-0.857-0.096-1.743-0.196-2.614-0.233c-4.145-0.183-8.276,1.043-11.655,3.433C101.3,145.028,101.274,145.036,101.248,145.036z
					 M146.122,136.482c-0.467,0.812-0.616,1.782-0.435,2.795c0.141-0.185,0.265-0.381,0.367-0.587
					C146.438,137.916,146.461,137.14,146.122,136.482z M64.678,130.738c-0.82,0-1.441,0.279-1.851,0.836
					c-1.077,1.459-0.483,4.5,0.394,6.313c0.089-0.096,0.18-0.194,0.271-0.293c1.472-1.588,3.141-3.388,3.031-5.009
					c-0.045-0.657-0.374-1.235-1.007-1.763C65.218,130.766,64.938,130.738,64.678,130.738z M97.49,127.419
					c-0.786,0-1.519,0.513-1.769,0.707c-1.767,1.378-2.592,3.852-2.006,6.015c0.332,1.225,1.092,2.287,2.077,3.04
					c1.524-1.293,2.636-3.572,3.199-5.915c0.215-0.894,0.566-3.046-0.811-3.697C97.953,127.463,97.719,127.419,97.49,127.419z"/>
			</g>
			<g>
				<path style="fill:#332E2E;" d="M101.248,165.764c-0.013,0-0.027-0.002-0.04-0.007c-0.039-0.013-0.069-0.043-0.082-0.081
					c-0.296-0.876,0.097-1.775,0.477-2.643c0.48-1.097,0.933-2.134-0.014-3.043c-0.497-0.477-1.235-0.716-2.03-0.657
					c-1.33,0.1-2.648-0.316-3.733-1.084c-0.942,0.746-2.055,1.142-3.327,0.964c-1.021-0.143-1.921-0.669-2.792-1.176
					c-0.56-0.326-1.14-0.664-1.743-0.895c-2.741-1.047-5.701,0.154-7.559,1.627c-1.067,0.846-2.047,1.913-3.085,3.358
					c-0.286,0.399-0.768,0.566-1.231,0.427c-0.465-0.141-0.777-0.551-0.794-1.046l-0.003-0.076c-0.031-0.81-0.552-1.473-1.327-1.687
					c-0.598-0.167-1.422-0.059-1.943,0.737c-0.203,0.311-0.393,0.638-0.563,0.971c-0.703,1.382-2.417,1.964-3.906,1.325
					c-2.011-0.864-3.527-2.148-4.389-3.719c-0.332,0.364-0.638,0.712-0.894,1.041c-1.836,2.362-5.285,4.149-8.327,2.99
					c-1.547-0.589-2.766-2.205-3.033-4.023c-0.223-1.521,0.255-2.859,1.311-3.67c0.057-0.043,0.138-0.034,0.18,0.024
					c0.043,0.056,0.033,0.137-0.024,0.18c-0.98,0.753-1.422,2.003-1.213,3.429c0.254,1.729,1.407,3.263,2.87,3.82
					c2.925,1.113,6.256-0.62,8.033-2.907c0.277-0.356,0.61-0.732,0.97-1.126c-0.9-1.801-1.622-5.034-0.415-6.669
					c0.609-0.825,1.61-1.109,2.978-0.845c0.021,0.004,0.041,0.013,0.057,0.027c0.697,0.574,1.076,1.235,1.126,1.966
					c0.117,1.731-1.592,3.574-3.1,5.201c-0.114,0.122-0.225,0.244-0.335,0.363c0.001,0.002,0.002,0.005,0.004,0.007
					c0.828,1.551,2.316,2.822,4.303,3.676c1.361,0.583,2.932,0.055,3.575-1.205c0.174-0.342,0.369-0.676,0.577-0.995
					c0.491-0.752,1.366-1.084,2.226-0.845c0.885,0.246,1.481,1.001,1.516,1.925l0.003,0.077c0.016,0.465,0.326,0.723,0.611,0.809
					c0.284,0.085,0.681,0.043,0.948-0.331c1.052-1.465,2.048-2.549,3.134-3.411c1.914-1.516,4.973-2.751,7.81-1.665
					c0.623,0.238,1.212,0.581,1.781,0.913c0.888,0.518,1.728,1.007,2.698,1.143c1.133,0.163,2.161-0.194,3.056-0.884
					c-1.006-0.784-1.781-1.879-2.122-3.138c-0.613-2.26,0.249-4.844,2.096-6.285c0.937-0.731,1.956-0.951,2.727-0.586
					c1.547,0.732,1.181,3.034,0.951,3.99c-0.537,2.237-1.617,4.639-3.213,6.026c1.028,0.71,2.272,1.091,3.511,0.997
					c0.865-0.065,1.676,0.199,2.227,0.727c1.077,1.033,0.566,2.202,0.072,3.331c-0.335,0.765-0.68,1.554-0.516,2.29
					c3.399-2.354,7.535-3.541,11.665-3.375c0.88,0.038,1.77,0.138,2.632,0.235c1.472,0.165,2.994,0.335,4.485,0.195
					c1.71-0.162,3.29-0.832,4.334-1.838c0.867-0.834,2.158-1.009,3.21-0.436c2.262,1.233,5.183,1.26,7.444,0.069
					c1.155-0.609,2.623-0.539,3.922,0.191c1.486,0.834,2.742,1.179,3.967,1.086c0.91-0.07,1.837-0.568,2.493-1.293
					c-0.271-1.229-0.082-2.415,0.543-3.371c0.024-0.036,0.064-0.058,0.108-0.058h0c0.044,0,0.084,0.023,0.107,0.059
					c0.496,0.773,0.514,1.712,0.05,2.643c-0.141,0.283-0.32,0.55-0.528,0.796c0.018,0.073,0.038,0.147,0.059,0.22
					c0.444,1.523,1.57,2.853,2.938,3.471c2.816,1.27,6.008,0.191,8.056-1.243c1.163-0.815,2.248-1.862,3.415-3.296
					c0.316-0.389,0.819-0.576,1.307-0.481c0.472,0.088,0.841,0.412,0.987,0.867c0.81,2.518,3.513,4.55,6.152,4.628
					c0.082,0.003,0.166,0.003,0.248,0.003c3.269,0,6.603-1.889,9.913-5.62c0.047-0.053,0.128-0.059,0.181-0.011
					c0.053,0.047,0.058,0.128,0.01,0.181c-3.446,3.884-6.938,5.814-10.36,5.703c-2.742-0.08-5.548-2.191-6.39-4.806
					c-0.117-0.363-0.412-0.622-0.789-0.693c-0.396-0.075-0.804,0.075-1.06,0.39c-1.183,1.453-2.284,2.516-3.467,3.345
					c-2.105,1.476-5.393,2.584-8.309,1.267c-1.435-0.648-2.615-2.04-3.08-3.633c-0.007-0.022-0.013-0.044-0.019-0.065
					c-0.691,0.705-1.627,1.184-2.546,1.254c-1.272,0.1-2.58-0.257-4.112-1.118c-1.223-0.686-2.598-0.755-3.677-0.187
					c-2.335,1.23-5.352,1.202-7.687-0.071c-0.955-0.522-2.125-0.362-2.908,0.395c-1.086,1.046-2.722,1.742-4.489,1.909
					c-1.516,0.143-3.051-0.028-4.538-0.195c-0.857-0.096-1.743-0.196-2.614-0.233c-4.145-0.189-8.276,1.042-11.655,3.433
					C101.3,165.756,101.274,165.764,101.248,165.764z M146.122,157.21c-0.467,0.812-0.616,1.782-0.435,2.795
					c0.141-0.185,0.265-0.381,0.367-0.587C146.438,158.644,146.461,157.868,146.122,157.21z M64.678,151.466
					c-0.82,0-1.44,0.279-1.851,0.835c-1.077,1.459-0.483,4.5,0.394,6.313c0.089-0.096,0.18-0.194,0.271-0.293
					c1.472-1.588,3.141-3.388,3.031-5.009c-0.045-0.657-0.374-1.235-1.007-1.763C65.218,151.494,64.938,151.466,64.678,151.466z
					 M97.491,148.147c-0.786,0-1.52,0.513-1.769,0.708c-1.767,1.378-2.592,3.852-2.006,6.015c0.332,1.225,1.092,2.288,2.078,3.04
					c1.523-1.293,2.636-3.572,3.198-5.915c0.215-0.895,0.566-3.046-0.811-3.697C97.953,148.19,97.719,148.147,97.491,148.147z"/>
			</g>
		</g>
	</g>
	<g>
		<g>
			<g>
				<g>
					<g>
						<polygon style="fill:#FD5D3D;" points="498.219,294.09 519.726,360.16 526.255,360.16 508.482,294.09 						"/>
						<path style="fill:#EF533A;" d="M515.243,319.222l-6.761-25.133h-10.263l6.932,21.297
							C508.503,316.7,511.865,317.983,515.243,319.222z"/>
					</g>
					<g>
						<polygon style="fill:#FD5D3D;" points="473.151,294.09 451.644,360.16 445.116,360.16 462.888,294.09 						"/>
						<path style="fill:#EF533A;" d="M464.93,319.346l8.221-25.256h-10.263l-7.49,27.844
							C458.545,320.97,461.729,320.129,464.93,319.346z"/>
					</g>
					<rect x="459.133" y="279.159" style="fill:#FD5D3D;" width="54.77" height="14.93"/>
				</g>
				<g>
					<g>
						<g>
							<g>
								<path style="fill:#C9DAF2;" d="M494.388,348.695c3.392,4.433,8.163,7.746,11.593,12.152c0.93,1.194,1.789,2.582,1.672,4.07
									c-0.136,1.715-1.531,3.084-2.987,4.082c-1.901,1.303-4.057,2.259-6.321,2.805c-1.131,0.272-2.324,0.442-3.456,0.176
									c-2.128-0.498-3.565-2.391-4.567-4.266c-2.296-4.296-3.286-9.11-4.249-13.852c-0.202-0.994,0.301-2.24,0.927-3.054
									c0.355-0.461,0.839-0.818,1.349-1.115C490.055,348.7,492.424,348.361,494.388,348.695z"/>
								<path style="fill:#E1EBF9;" d="M504.801,363.477c-1.901,1.303-4.057,2.259-6.321,2.804c-1.13,0.272-2.324,0.442-3.456,0.177
									c-2.128-0.498-3.565-2.391-4.567-4.266c-1.846-3.454-2.844-7.242-3.667-11.059c-0.518,0.799-0.896,1.853-0.718,2.728
									c0.964,4.742,1.953,9.556,4.249,13.852c1.002,1.875,2.44,3.767,4.568,4.266c1.132,0.265,2.326,0.096,3.456-0.176
									c2.264-0.545,4.42-1.502,6.321-2.805c1.456-0.998,2.852-2.366,2.987-4.082c0.087-1.097-0.361-2.138-0.973-3.088
									C506.147,362.457,505.483,363.01,504.801,363.477z"/>
							</g>
							<g>
								<g>
									<path style="fill:#332E2E;" d="M492.852,369.983c-0.027,0-0.054-0.006-0.08-0.017c-0.098-0.044-0.142-0.16-0.098-0.259
										c2.039-4.518,6.736-7.671,11.689-7.846c0.109,0.005,0.198,0.081,0.202,0.187c0.004,0.108-0.081,0.198-0.188,0.203
										c-4.809,0.171-9.369,3.231-11.348,7.618C492.997,369.94,492.926,369.983,492.852,369.983z"/>
								</g>
								<g>
									<path style="fill:#332E2E;" d="M492.036,354.985c-0.065,0-0.123-0.017-0.175-0.046c-0.365-0.198-0.419-1.118,0.435-5.091
										l0.064-0.3c0.418-2.065,1.017-3.781,1.829-5.242l0,0c0.328-0.588,0.794-1.32,1.498-1.765
										c0.632-0.401,1.598-0.581,2.332-0.082c0.579,0.393,0.903,1.155,0.845,1.99c-0.049,0.727-0.353,1.396-0.659,2.018
										c-0.789,1.605-1.714,3.168-2.751,4.646l-0.13,0.186C493.313,354.209,492.489,354.985,492.036,354.985z M494.53,344.495
										c-0.793,1.428-1.378,3.106-1.788,5.129l-0.065,0.306c-0.834,3.88-0.709,4.564-0.616,4.678
										c0.094-0.005,0.657-0.224,2.94-3.531l0.132-0.19c1.026-1.46,1.941-3.005,2.72-4.593c0.29-0.588,0.575-1.216,0.621-1.873
										c0.047-0.686-0.218-1.329-0.676-1.64c-0.587-0.401-1.379-0.242-1.903,0.088
										C495.266,343.268,494.835,343.948,494.53,344.495L494.53,344.495z"/>
								</g>
								<g>
									<path style="fill:#332E2E;" d="M498.377,355.631c-2.008,0-4.136-0.341-6.389-0.756c-0.106-0.02-0.176-0.122-0.157-0.227
										c0.019-0.105,0.12-0.169,0.227-0.157c4.284,0.785,8.1,1.306,11.444-0.312c0.824-0.399,1.4-0.85,1.764-1.379
										c0.445-0.645,0.551-1.449,0.271-2.048c-0.346-0.739-1.349-1.121-2.098-0.806c-0.752,0.317-1.174,1.303-0.885,2.068
										c0.038,0.101-0.012,0.213-0.113,0.251c-0.101,0.03-0.214-0.014-0.251-0.114c-0.365-0.965,0.148-2.164,1.097-2.565
										c0.95-0.399,2.167,0.067,2.604,1.001c0.337,0.722,0.218,1.678-0.303,2.435c-0.403,0.584-1.029,1.077-1.915,1.507
										C502.009,355.335,500.245,355.631,498.377,355.631z"/>
								</g>
								<g>
									<path style="fill:#332E2E;" d="M481.208,357.449c-0.437,0-0.879-0.041-1.307-0.181c-0.796-0.261-1.381-0.847-1.527-1.531
										c-0.187-0.866,0.343-1.693,0.951-2.129c0.68-0.488,1.532-0.645,2.199-0.727l0,0c1.658-0.206,3.472-0.114,5.544,0.273
										l0.305,0.055c4.001,0.699,4.834,1.096,4.881,1.507c0.053,0.469-0.722,0.961-4.677,1.842l-0.22,0.05
										c-1.76,0.407-3.557,0.678-5.34,0.806C481.752,357.432,481.481,357.449,481.208,357.449z M481.571,353.267
										c-0.62,0.076-1.409,0.219-2.019,0.657c-0.504,0.361-0.946,1.036-0.797,1.73c0.116,0.541,0.613,1.029,1.267,1.242
										c0.628,0.206,1.317,0.18,1.967,0.128c1.764-0.126,3.54-0.395,5.28-0.797l0.222-0.05c3.926-0.875,4.342-1.314,4.375-1.428
										c-0.066-0.101-0.653-0.472-4.561-1.157l-0.309-0.055C484.963,353.155,483.188,353.068,481.571,353.267L481.571,353.267z
										 M481.547,353.074h0.005H481.547z"/>
								</g>
								<g>
									<path style="fill:#332E2E;" d="M484.704,366.784c-0.686,0-1.335-0.25-1.753-0.699c-0.702-0.756-0.679-2.059,0.05-2.789
										c0.729-0.731,2.032-0.756,2.789-0.055c0.079,0.073,0.084,0.197,0.011,0.276c-0.072,0.079-0.196,0.087-0.276,0.011
										c-0.599-0.555-1.669-0.536-2.248,0.043c-0.577,0.579-0.596,1.65-0.04,2.249c0.449,0.484,1.23,0.684,1.999,0.517
										c0.628-0.139,1.263-0.504,1.94-1.117c2.757-2.491,3.708-6.225,4.586-10.49c0.022-0.105,0.122-0.175,0.231-0.151
										c0.105,0.021,0.173,0.125,0.152,0.23c-0.892,4.334-1.862,8.13-4.706,10.701c-0.729,0.658-1.422,1.055-2.118,1.208
										C485.115,366.763,484.908,366.784,484.704,366.784z"/>
								</g>
								<g>
									<path style="fill:#332E2E;" d="M491.409,359.62c-0.051,0-0.101-0.02-0.139-0.059c-0.076-0.076-0.074-0.2,0.003-0.276
										c1.355-1.321,3.007-2.373,4.778-3.043c0.1-0.035,0.213,0.014,0.251,0.114c0.038,0.1-0.012,0.213-0.113,0.251
										c-1.722,0.651-3.328,1.673-4.644,2.958C491.507,359.602,491.457,359.62,491.409,359.62z"/>
								</g>
								<g>
									<path style="fill:#332E2E;" d="M492.184,361.044c-0.061,0-0.12-0.029-0.159-0.082c-0.063-0.087-0.043-0.209,0.045-0.271
										c1.662-1.19,3.424-2.266,5.237-3.199c0.092-0.047,0.212-0.012,0.263,0.084c0.049,0.096,0.012,0.213-0.085,0.264
										c-1.795,0.923-3.541,1.99-5.188,3.168C492.263,361.031,492.223,361.044,492.184,361.044z"/>
								</g>
								<g>
									<path style="fill:#332E2E;" d="M493.057,362.554c-0.064,0-0.127-0.032-0.165-0.09c-0.058-0.091-0.031-0.212,0.06-0.27
										c1.728-1.099,3.557-2.074,5.433-2.895c0.101-0.046,0.213,0.002,0.257,0.101c0.043,0.098-0.001,0.213-0.1,0.256
										c-1.859,0.814-3.669,1.78-5.382,2.868C493.13,362.545,493.093,362.554,493.057,362.554z"/>
								</g>
							</g>
						</g>
						<g>
							<path style="fill:#333D4F;" d="M453.491,256.687c0,0-6.948,27.659-6.007,30.011c0.941,2.352,37.16,68.676,37.16,68.676
								l10.584-6.821c0,0-27.282-55.975-26.341-57.387c0.941-1.411,16.934-11.351,16.934-11.351v-23.128H453.491z"/>
							<g>
								<path style="fill:#C9DAF2;" d="M477.663,311.914c-0.049,0-0.096-0.028-0.117-0.076l-8.356-18.911
									c-0.04-0.096-3.936-9.392-9.678-11.725c-1.782-0.724-3.576-0.707-5.33,0.051c-0.064,0.028-0.141-0.002-0.169-0.067
									c-0.028-0.065,0.002-0.142,0.067-0.17c1.821-0.786,3.681-0.803,5.529-0.052c5.842,2.372,9.778,11.767,9.817,11.861
									l8.354,18.908c0.029,0.065,0,0.142-0.066,0.17C477.698,311.911,477.681,311.914,477.663,311.914z"/>
							</g>
						</g>
					</g>
					<g>
						<path style="fill:#C9DAF2;" d="M477.707,348.653c-3.272,4.441-7.874,7.76-11.183,12.174c-0.897,1.196-1.726,2.587-1.613,4.077
							c0.131,1.719,1.477,3.09,2.881,4.089c1.834,1.305,3.914,2.263,6.097,2.81c1.09,0.273,2.242,0.443,3.334,0.177
							c2.052-0.499,3.439-2.396,4.406-4.274c2.215-4.304,3.169-9.127,4.099-13.877c0.195-0.996-0.29-2.245-0.895-3.06
							c-0.342-0.462-0.809-0.819-1.301-1.117C481.887,348.657,479.602,348.317,477.707,348.653z"/>
						<g>
							<g>
								<path style="fill:#332E2E;" d="M478.947,369.983c0.027,0,0.054-0.006,0.08-0.017c0.098-0.044,0.142-0.16,0.097-0.259
									c-2.039-4.518-6.736-7.671-11.689-7.846c-0.109,0.005-0.198,0.081-0.202,0.187c-0.004,0.108,0.081,0.198,0.188,0.203
									c4.809,0.171,9.369,3.231,11.348,7.618C478.802,369.94,478.874,369.983,478.947,369.983z"/>
							</g>
							<g>
								<path style="fill:#332E2E;" d="M476.476,351.299l-0.129-0.186c-1.037-1.478-1.963-3.042-2.751-4.646
									c-0.306-0.622-0.61-1.291-0.659-2.018c-0.058-0.835,0.266-1.597,0.845-1.99c0.734-0.498,1.699-0.318,2.332,0.082
									c0.704,0.445,1.17,1.176,1.498,1.765l0,0c0.812,1.461,1.41,3.177,1.829,5.242l0.064,0.3c0.854,3.973,0.8,4.893,0.435,5.091
									c-0.052,0.029-0.11,0.046-0.175,0.046C479.31,354.985,478.486,354.209,476.476,351.299z M477.269,344.495
									c-0.305-0.547-0.735-1.227-1.365-1.624c-0.524-0.331-1.317-0.489-1.903-0.088c-0.458,0.311-0.723,0.954-0.676,1.64
									c0.046,0.657,0.331,1.285,0.621,1.873c0.78,1.588,1.695,3.133,2.72,4.593l0.132,0.19c2.284,3.307,2.847,3.526,2.94,3.531
									c0.093-0.114,0.218-0.798-0.616-4.678l-0.065-0.306C478.646,347.6,478.062,345.922,477.269,344.495L477.269,344.495z"/>
							</g>
							<g>
								<path style="fill:#332E2E;" d="M473.422,355.631c2.008,0,4.136-0.341,6.39-0.756c0.106-0.02,0.176-0.122,0.157-0.227
									c-0.019-0.105-0.12-0.169-0.227-0.157c-4.284,0.785-8.1,1.306-11.444-0.312c-0.824-0.399-1.4-0.85-1.764-1.379
									c-0.445-0.645-0.551-1.449-0.271-2.048c0.346-0.739,1.349-1.121,2.098-0.806c0.752,0.317,1.174,1.303,0.885,2.068
									c-0.038,0.101,0.012,0.213,0.113,0.251c0.101,0.03,0.214-0.014,0.251-0.114c0.365-0.965-0.148-2.164-1.097-2.565
									c-0.95-0.399-2.167,0.067-2.604,1.001c-0.338,0.722-0.218,1.678,0.303,2.435c0.403,0.584,1.029,1.077,1.915,1.507
									C469.791,355.335,471.554,355.631,473.422,355.631z"/>
							</g>
							<g>
								<path style="fill:#332E2E;" d="M489.782,357.414c-1.784-0.128-3.58-0.399-5.34-0.806l-0.219-0.05
									c-3.955-0.881-4.73-1.373-4.677-1.842c0.047-0.411,0.88-0.808,4.881-1.507l0.305-0.055c2.073-0.387,3.887-0.478,5.545-0.273
									l0,0c0.667,0.082,1.518,0.239,2.199,0.727c0.608,0.436,1.138,1.263,0.951,2.129c-0.146,0.684-0.731,1.271-1.527,1.531
									c-0.428,0.14-0.87,0.181-1.307,0.181C490.318,357.449,490.047,357.432,489.782,357.414z M490.228,353.267
									c-1.617-0.2-3.392-0.113-5.426,0.27l-0.309,0.055c-3.908,0.684-4.495,1.056-4.561,1.157c0.034,0.114,0.45,0.553,4.375,1.428
									l0.223,0.05c1.74,0.402,3.516,0.671,5.28,0.797c0.651,0.052,1.34,0.078,1.967-0.128c0.654-0.213,1.151-0.701,1.267-1.242
									c0.149-0.693-0.293-1.368-0.797-1.73C491.638,353.487,490.849,353.344,490.228,353.267L490.228,353.267z M490.247,353.074
									h0.005H490.247z"/>
							</g>
							<g>
								<path style="fill:#332E2E;" d="M487.095,366.784c0.686,0,1.335-0.25,1.752-0.699c0.702-0.756,0.679-2.059-0.05-2.789
									c-0.729-0.731-2.032-0.756-2.789-0.055c-0.079,0.073-0.084,0.197-0.011,0.276c0.072,0.079,0.196,0.087,0.276,0.011
									c0.599-0.555,1.669-0.536,2.248,0.043c0.577,0.579,0.596,1.65,0.04,2.249c-0.449,0.484-1.23,0.684-1.999,0.517
									c-0.628-0.139-1.263-0.504-1.94-1.117c-2.757-2.491-3.708-6.225-4.586-10.49c-0.022-0.105-0.122-0.175-0.231-0.151
									c-0.105,0.021-0.173,0.125-0.152,0.23c0.892,4.334,1.862,8.13,4.706,10.701c0.729,0.658,1.422,1.055,2.118,1.208
									C486.684,366.763,486.891,366.784,487.095,366.784z"/>
							</g>
							<g>
								<path style="fill:#332E2E;" d="M480.391,359.62c0.051,0,0.101-0.02,0.139-0.059c0.075-0.076,0.074-0.2-0.003-0.276
									c-1.355-1.321-3.007-2.373-4.778-3.043c-0.101-0.035-0.213,0.014-0.251,0.114c-0.038,0.1,0.012,0.213,0.113,0.251
									c1.722,0.651,3.328,1.673,4.644,2.958C480.292,359.602,480.342,359.62,480.391,359.62z"/>
							</g>
							<g>
								<path style="fill:#332E2E;" d="M479.616,361.044c0.061,0,0.12-0.029,0.158-0.082c0.062-0.087,0.043-0.209-0.045-0.271
									c-1.663-1.19-3.424-2.266-5.237-3.199c-0.092-0.047-0.213-0.012-0.263,0.084c-0.049,0.096-0.011,0.213,0.085,0.264
									c1.795,0.923,3.541,1.99,5.188,3.168C479.536,361.031,479.576,361.044,479.616,361.044z"/>
							</g>
							<g>
								<path style="fill:#332E2E;" d="M478.742,362.554c0.064,0,0.127-0.032,0.164-0.09c0.058-0.091,0.031-0.212-0.06-0.27
									c-1.728-1.099-3.557-2.074-5.433-2.895c-0.101-0.046-0.213,0.002-0.257,0.101c-0.043,0.098,0.001,0.213,0.1,0.256
									c1.859,0.814,3.669,1.78,5.382,2.868C478.669,362.545,478.706,362.554,478.742,362.554z"/>
							</g>
						</g>
						<g>
							<path style="fill:#333D4F;" d="M518.077,256.687c0,0,6.948,27.659,6.007,30.011c-0.941,2.352-37.16,68.676-37.16,68.676
								l-10.584-6.821c0,0,27.282-55.975,26.341-57.387c-0.941-1.411-16.934-11.351-16.934-11.351v-23.128H518.077z"/>
							<g>
								<path style="fill:#C9DAF2;" d="M476.341,348.683c-0.018,0-0.038-0.004-0.056-0.013c-0.064-0.03-0.091-0.107-0.06-0.171
									l15.27-31.866c0.031-0.063,0.108-0.092,0.172-0.06c0.064,0.03,0.091,0.108,0.06,0.171l-15.27,31.866
									C476.435,348.655,476.388,348.683,476.341,348.683z"/>
							</g>
							<g>
								<path style="fill:#C9DAF2;" d="M494.143,311.914c-0.018,0-0.035-0.003-0.052-0.011c-0.065-0.028-0.094-0.104-0.066-0.17
									l8.356-18.911c0.038-0.091,3.974-9.486,9.816-11.858c1.848-0.75,3.708-0.733,5.529,0.052
									c0.065,0.028,0.095,0.104,0.067,0.17c-0.029,0.064-0.104,0.095-0.169,0.067c-1.756-0.759-3.55-0.775-5.331-0.051
									c-5.741,2.332-9.638,11.628-9.676,11.722l-8.357,18.914C494.24,311.886,494.193,311.914,494.143,311.914z"/>
							</g>
						</g>
					</g>
				</g>
			</g>
			<g>
				<g>
					<polygon style="fill:#FD5D3D;" points="380.919,259.613 388.434,393.419 393.505,393.419 393.505,259.613 					"/>
					<path style="fill:#EF533A;" d="M393.505,282.853v-23.24h-12.586l1.636,29.125C386.139,286.655,389.798,284.71,393.505,282.853z
						"/>
				</g>
				<g>
					<polygon style="fill:#FD5D3D;" points="397.344,259.613 404.858,359.073 409.93,359.073 409.93,259.613 					"/>
					<path style="fill:#EF533A;" d="M409.93,275.137v-15.524h-12.586l1.557,20.6C402.552,278.475,406.237,276.799,409.93,275.137z"
						/>
				</g>
				<g>
					<polygon style="fill:#FD5D3D;" points="581.146,259.613 573.631,393.419 568.56,393.419 568.56,259.613 					"/>
					<path style="fill:#EF533A;" d="M568.479,282.853v-23.24h12.586l-1.636,29.125C575.846,286.655,572.187,284.71,568.479,282.853z
						"/>
				</g>
				<g>
					<polygon style="fill:#FD5D3D;" points="564.721,259.613 557.207,359.073 552.135,359.073 552.135,259.613 					"/>
					<path style="fill:#EF533A;" d="M552.055,275.137v-15.524h12.586l-1.556,20.6C559.432,278.475,555.747,276.799,552.055,275.137z
						"/>
				</g>
				<g>
					<polygon style="fill:#FF816C;" points="379.461,253.762 400.527,236.597 561.25,236.597 581.146,253.762 					"/>
					<rect x="379.461" y="253.762" style="fill:#FD5D3D;" width="201.685" height="10.699"/>
				</g>
			</g>
		</g>
		<g>
			<g>
				<g>
					<polygon style="fill:#984F53;" points="486.46,191.248 496.4,183.049 497.158,172.075 486.477,175.711 475.796,172.075 
						476.677,183.049 474.265,183.926 474.265,183.926 					"/>
				</g>
				<g>
					<g>
						<path style="fill:#894249;" d="M476.161,176.623c0.645,1.281,1.661,2.348,2.875,3.127c2.85,1.829,6.698,2.271,9.958,1.479
							c3.532-0.857,6.193-3.16,7.952-6.09l0.212-3.064l-10.681,3.635l-10.681-3.635L476.161,176.623z"/>
					</g>
				</g>
				<g>
					<g>
						<g>
							<path style="fill:#984F53;" d="M472.169,155.737c0,0-1.105-3.775-3.671-1.921c-2.557,1.847-0.967,9.034,3.671,7.564
								L472.169,155.737z"/>
							<path style="fill:#332E2E;" d="M472.169,161.234c-0.119-0.643-0.264-1.279-0.427-1.907c-0.171-0.625-0.347-1.25-0.604-1.84
								c-0.245-0.592-0.556-1.163-0.998-1.61c-0.433-0.455-1.084-0.679-1.738-0.55l0.485-0.097c0.164-0.028,0.331,0.02,0.501,0.028
								c0.327,0.078,0.637,0.245,0.89,0.469c0.509,0.453,0.832,1.057,1.104,1.658C471.862,158.62,472.128,159.924,472.169,161.234z"
								/>
						</g>
						<g>
							<path style="fill:#984F53;" d="M500.752,155.737c0,0,1.105-3.775,3.671-1.921c2.557,1.847,0.967,9.034-3.671,7.564
								L500.752,155.737z"/>
							<path style="fill:#332E2E;" d="M500.752,161.234c0.041-1.31,0.306-2.614,0.787-3.85c0.272-0.601,0.595-1.205,1.104-1.658
								c0.254-0.225,0.563-0.391,0.89-0.469c0.17-0.008,0.337-0.056,0.501-0.028l0.485,0.097c-0.654-0.128-1.305,0.095-1.738,0.55
								c-0.442,0.447-0.753,1.018-0.998,1.61c-0.257,0.59-0.433,1.215-0.604,1.84C501.016,159.955,500.871,160.591,500.752,161.234z
								"/>
						</g>
						<g>
							<path style="fill:#984F53;" d="M500.736,152.068c-0.061-7.838-6.428-14.174-14.281-14.174
								c-7.852,0-14.22,6.336-14.281,14.174h-0.005v0.105c0,0.003,0,0.005,0,0.007s0,0.005,0,0.007v11.01h0.007
								c0,0.05-0.007,0.098-0.007,0.149c0,7.89,6.396,14.286,14.286,14.286c7.89,0,14.286-6.396,14.286-14.286
								c0-0.05-0.007-0.099-0.007-0.149h0.007v-11.13H500.736z"/>
							<path style="fill:#1B202B;" d="M500.741,152.173v-0.105h-0.005c-0.032-4.111-1.81-7.798-4.616-10.385
								c0.095-0.049,0.195-0.086,0.288-0.138c0.715-0.401,1.395-0.936,1.741-1.68s0.27-1.727-0.349-2.265
								c-0.404-0.352-0.961-0.464-1.493-0.519c-1.858-0.193-3.798,0.316-5.463,1.164c0.291-0.24,0.591-0.489,0.762-0.825
								c0.171-0.336,0.181-0.785-0.08-1.058c-0.134-0.14-0.322-0.218-0.508-0.272c-0.903-0.263-1.876-0.071-2.771,0.218
								c-1.194,0.387-2.32,0.965-3.355,1.676c-7.117,0.775-12.661,6.774-12.718,14.085h-0.005v0.105c0,0.003,0,0.005,0,0.007
								c0,0.002,0,0.005,0,0.007v3.064l1.302-6.201c0,0,2.88,0.228,3.645-5.018c0,0,1.251-2.562,6.273-3.344
								c0.052,0.409,0.104,0.817,0.171,1.182c0.208,1.13,0.46,2.341,1.3,3.125c0.388,0.362,0.988,0.605,1.446,0.336
								c0.399-0.235,0.641-0.873,0.383-1.258c0.898,0.546,1.868,0.973,2.877,1.267c1.322,0.386,2.799,0.528,4.035-0.079
								c0.434-0.213,0.855-0.563,0.928-1.041c0.08-0.521-0.294-1.027-0.762-1.269c-0.468-0.243-0.953-0.295-1.479-0.328
								c0.64-0.001,1.277-0.087,1.901-0.232c1.21,0.842,1.605,1.641,1.605,1.641c0.765,5.246,3.645,5.018,3.645,5.018l1.302,6.201
								v-3.064c0-0.003,0-0.005,0-0.007C500.742,152.178,500.741,152.176,500.741,152.173z"/>
						</g>
					</g>
					<g>
						<g>
							<path style="fill:#333D4F;" d="M482.092,155.185h-4.413c-0.31,0-0.563-0.253-0.563-0.563v-0.72
								c0-0.31,0.253-0.563,0.563-0.563h4.413c0.31,0,0.563,0.253,0.563,0.563v0.72
								C482.655,154.931,482.402,155.185,482.092,155.185z"/>
							<ellipse style="fill:#332E2E;" cx="479.886" cy="158.611" rx="0.869" ry="1.412"/>
							<path style="fill:#D86C77;" d="M480.755,164.263c0,0.855-1.373,1.548-3.067,1.548s-3.067-0.693-3.067-1.548
								c0-0.855,1.373-1.548,3.067-1.548S480.755,163.408,480.755,164.263z"/>
						</g>
						<g>
							<path style="fill:#333D4F;" d="M490.828,155.185h4.413c0.31,0,0.563-0.253,0.563-0.563v-0.72c0-0.31-0.253-0.563-0.563-0.563
								h-4.413c-0.31,0-0.563,0.253-0.563,0.563v0.72C490.265,154.931,490.519,155.185,490.828,155.185z"/>
							<path style="fill:#332E2E;" d="M492.166,158.611c0,0.78,0.389,1.412,0.869,1.412c0.48,0,0.869-0.632,0.869-1.412
								c0-0.78-0.389-1.412-0.869-1.412C492.555,157.199,492.166,157.832,492.166,158.611z"/>
							<path style="fill:#D86C77;" d="M492.166,164.263c0,0.855,1.373,1.548,3.067,1.548s3.067-0.693,3.067-1.548
								c0-0.855-1.373-1.548-3.067-1.548S492.166,163.408,492.166,164.263z"/>
						</g>
						<g>
							<g>
								<path style="fill:#332E2E;" d="M487.826,165.945h-3.927c-0.073,0-0.133-0.06-0.133-0.133c0-0.073,0.06-0.133,0.133-0.133
									h3.78l-1.267-11.996c-0.007-0.073,0.046-0.138,0.118-0.146c0.078-0.005,0.138,0.046,0.146,0.118l1.281,12.143
									c0.004,0.037-0.008,0.075-0.034,0.103C487.9,165.928,487.864,165.945,487.826,165.945z"/>
							</g>
							<path style="fill:#FFFFFF;" d="M489.465,168.868c0,0-2.514,1.997-5.99,0H489.465z"/>
						</g>
					</g>
				</g>
				<g>
					<path style="fill:#ABCB42;" d="M530.037,236.597l-2.674-10.914l-8.435-34.434l-0.309,3.114l0.171-3.114l-22.39-8.199
						l-9.94,8.199l-12.195-7.322l-20.135,7.322l0,0.003l0-0.002l-11.108,45.349l12.287,11.634l-0.725-12.545l2.006-0.158
						l0.099,1.783c3.617-1.138,7.532-1.039,11.281-0.996c8.447,0.098,16.908-0.443,25.355-0.584c4.296-0.072,8.6-0.141,12.896-0.047
						c3.367,0.073,6.808,0.281,10.054,1.24l0.018-0.328h2.014l-0.631,11.634L530.037,236.597z"/>
					<g>
						<path style="fill:#C1DB56;" d="M476.48,180.595l-3.621,2.428l5.794,16.563c0,0,4.405-8.212,7.824-8.337L476.48,180.595z"/>
						<path style="fill:#C1DB56;" d="M496.457,180.595l3.621,2.428l-5.794,16.563c0,0-4.405-8.212-7.824-8.337L496.457,180.595z"/>
					</g>
					<g>
						<g>
							<path style="fill:#332E2E;" d="M518.455,233.993c-0.035,0-0.07-0.014-0.096-0.042c-0.048-0.053-0.045-0.135,0.008-0.183
								l6.54-6.006c0.053-0.048,0.135-0.045,0.183,0.008c0.048,0.053,0.045,0.135-0.008,0.183l-6.54,6.006
								C518.518,233.982,518.487,233.993,518.455,233.993z"/>
						</g>
						<g>
							<path style="fill:#332E2E;" d="M454.658,233.993c-0.031,0-0.063-0.011-0.088-0.034l-6.54-6.006
								c-0.053-0.049-0.056-0.131-0.008-0.183c0.05-0.053,0.132-0.056,0.183-0.008l6.54,6.006c0.053,0.049,0.056,0.131,0.008,0.183
								C454.728,233.979,454.693,233.993,454.658,233.993z"/>
						</g>
					</g>
				</g>
			</g>
			<g>
				<g>
					<g>
						<ellipse style="fill:#332E2E;" cx="537.401" cy="229.818" rx="7.48" ry="1.913"/>
						<g>
							<path style="fill:#FEAE17;" d="M532.537,232.738c0,0-11.496-25.398-6.817-27.537c4.679-2.139,7.753,24.882,7.753,24.882
								s-2.54-30.363,2.005-30.497c4.545-0.134,0,30.435,0,30.435s3.633-27.84,9.129-26.599c5.496,1.241-6.054,25.974-6.054,25.974
								s10.026-20.987,13.368-18.18c3.342,2.807-11.333,22.197-11.333,22.197L532.537,232.738z"/>
							<g>
								<g>
									<path style="fill:#332E2E;" d="M533.021,231.861c-0.059,0-0.111-0.039-0.126-0.099l-6.478-26.608
										c-0.017-0.07,0.026-0.14,0.095-0.157c0.071-0.016,0.14,0.026,0.157,0.095l6.478,26.607c0.017,0.07-0.026,0.14-0.095,0.157
										C533.041,231.86,533.031,231.861,533.021,231.861z"/>
								</g>
								<g>
									<path style="fill:#332E2E;" d="M534.871,231.745c-0.001,0-0.002,0-0.003,0c-0.071-0.001-0.129-0.06-0.127-0.132
										l0.607-32.03c0.002-0.071,0.06-0.122,0.132-0.127c0.071,0.001,0.129,0.06,0.127,0.132L535,231.618
										C534.999,231.689,534.941,231.745,534.871,231.745z"/>
								</g>
								<g>
									<path style="fill:#332E2E;" d="M536.512,231.861c-0.012,0-0.024-0.002-0.036-0.005c-0.069-0.02-0.109-0.091-0.089-0.16
										l8.094-28.31c0.019-0.069,0.09-0.111,0.16-0.089c0.069,0.02,0.109,0.091,0.089,0.16l-8.094,28.31
										C536.621,231.824,536.569,231.861,536.512,231.861z"/>
								</g>
								<g>
									<path style="fill:#332E2E;" d="M539.539,232.514c-0.022,0-0.045-0.006-0.065-0.018c-0.062-0.036-0.083-0.116-0.047-0.177
										l12.381-21.169c0.036-0.063,0.116-0.083,0.177-0.047c0.062,0.036,0.083,0.115,0.047,0.177l-12.381,21.169
										C539.627,232.491,539.584,232.514,539.539,232.514z"/>
								</g>
							</g>
						</g>
					</g>
					<g>
						<g>
							<path style="fill:#556AA1;" d="M537.401,231.731c-4.048,0-7.325-0.824-7.456-1.852h-0.024v18.323h0.023
								c0.123,1.029,3.404,1.855,7.457,1.855c4.053,0,7.334-0.826,7.457-1.855h0.023v-18.323h-0.024
								C544.726,230.907,541.449,231.731,537.401,231.731z"/>
						</g>
					</g>
				</g>
				<g>
					<polygon style="fill:#C9DAF2;" points="518.766,249.733 454.224,249.733 451.649,205.159 521.185,205.159 					"/>
					<polygon style="fill:#332E2E;" points="451.649,205.159 453.048,204.007 519.759,204.007 521.185,205.159 					"/>
					<g>
						<g>
							<path style="fill:#332E2E;" d="M518.826,248.75H454.13c-0.071,0-0.13-0.058-0.13-0.13c0-0.071,0.058-0.13,0.13-0.13h64.696
								c0.071,0,0.13,0.058,0.13,0.13C518.956,248.692,518.898,248.75,518.826,248.75z"/>
						</g>
						<g>
							<path style="fill:#332E2E;" d="M518.911,247.199h-64.78c-0.071,0-0.13-0.058-0.13-0.13s0.058-0.13,0.13-0.13h64.78
								c0.071,0,0.13,0.058,0.13,0.13S518.982,247.199,518.911,247.199z"/>
						</g>
					</g>
				</g>
				<g>
					<g>
						<path style="fill:#556AA1;" d="M430.458,246.515c0,1.777-6.615,3.218-14.774,3.218c-8.16,0-14.774-1.441-14.774-3.218
							c0-1.777,6.615-3.218,14.774-3.218C423.844,243.297,430.458,244.738,430.458,246.515z"/>
						<g>
							<path style="fill:#415787;" d="M415.684,249.733c-7.867,0-14.279-1.34-14.731-3.029c-0.017,0.071-0.044,0.141-0.044,0.213
								c0,1.999,6.615,3.62,14.774,3.62c8.16,0,14.774-1.621,14.774-3.62c0-0.072-0.027-0.142-0.044-0.213
								C429.963,248.393,423.551,249.733,415.684,249.733z"/>
						</g>
					</g>
					<g>
						<path style="fill:#FEAE17;" d="M414.187,180.763l-0.375-0.979c-0.185-0.482,0.057-1.023,0.539-1.208l55.029-21.048
							c0.482-0.184,1.023,0.057,1.208,0.54l0.374,0.979c0.185,0.482-0.057,1.023-0.539,1.208l-55.029,21.048
							C414.912,181.487,414.372,181.246,414.187,180.763z"/>
						<path style="fill:#556AA1;" d="M411.034,180.65l61.297-23.446l-1.043-2.726l-63.173,24.163l0,0.001h0v67.636h0.045
							c-0.012,0.027-0.045,0.051-0.045,0.079c0,0.285,0.653,0.516,1.46,0.516c0.806,0,1.459-0.231,1.459-0.516
							c0-0.028-0.033-0.052-0.045-0.079h0.045V180.65z"/>
						<path style="fill:#415787;" d="M411.034,231.04c-0.98,0.593-1.952,1.199-2.919,1.813v13.425h0.045
							c-0.012,0.027-0.045,0.051-0.045,0.079c0,0.285,0.653,0.516,1.46,0.516c0.806,0,1.459-0.231,1.459-0.516
							c0-0.028-0.033-0.052-0.045-0.079h0.045V231.04z"/>
					</g>
				</g>
			</g>
		</g>
	</g>
	<g>
		<g>
			<path style="fill:#1B202B;" d="M298.921,120.583c0,0-22.645,41.186-9.732,44.14c12.912,2.954,25.77-16.03,24.726-23.83
				C312.871,133.093,298.921,120.583,298.921,120.583z"/>
			<polygon style="fill:#C9DAF2;" points="293.81,151.382 286.63,173.645 292.89,210.67 323.922,210.67 337.24,156.597 
				314.418,149.69 			"/>
			<g>
				<g>
					<path style="fill:#984F53;" d="M306.39,378.049c-0.006,0.873,0.098,1.759,0.437,2.563c0.592,1.408,1.831,2.426,3.055,3.34
						c0.243,0.182,0.53,0.371,0.826,0.305c0.206-0.046,0.363-0.207,0.506-0.362c0.83-0.897,1.616-1.833,2.356-2.806
						c0.702-0.923,1.379-1.919,1.579-3.062c0.149-0.851,0.021-1.723-0.104-2.578c-0.62-4.219-1.193-8.469-1.053-12.731
						c0-0.008-2.679-0.234-2.938-0.242c-0.959-0.03-1.654-0.11-1.694,0.836c-0.076,1.784,0.164,3.309-0.359,4.972
						C307.993,371.487,306.412,374.625,306.39,378.049z"/>
					<path style="fill:#8B57BC;" d="M309.988,378.021c-1.651-0.085-2.713-0.917-3.384-2.105c-0.124,0.701-0.209,1.41-0.214,2.133
						c-0.006,0.873,0.098,1.759,0.437,2.563c0.592,1.408,1.831,2.426,3.055,3.34c0.243,0.181,0.53,0.371,0.826,0.305
						c0.205-0.046,0.362-0.207,0.505-0.362c0.83-0.897,1.616-1.833,2.356-2.805c0.702-0.923,1.379-1.919,1.579-3.062
						c0.143-0.82,0.03-1.659-0.091-2.483C313.981,377.115,312.413,378.146,309.988,378.021z"/>
				</g>
				<g>
					<path style="fill:#984F53;" d="M291.146,351.874c0.102,2.054-0.275,4.203-0.238,6.295c-3.77,3.685-6.595,7.305-10.364,10.99
						c-0.486,0.475-1.014,1.129-0.755,1.757c0.139,0.337,0.481,0.553,0.832,0.652c0.896,0.253,1.836-0.124,2.685-0.506
						c4.567-2.053,8.977-4.458,13.175-7.187c0.432-1.076,0.431-2.132,0.424-3.291c-0.016-2.876-0.132-5.752-0.349-8.62
						c-0.012-0.159-0.033-0.334-0.153-0.438c-0.105-0.091-0.255-0.099-0.394-0.103C294.521,351.385,292.631,351.769,291.146,351.874
						z"/>
					<path style="fill:#8B57BC;" d="M293.085,360.519c-1.486,1.808-2.888,3.657-4.746,5.111c-2.277,1.782-4.892,2.819-7.641,3.373
						c-0.053,0.052-0.102,0.103-0.155,0.155c-0.486,0.475-1.014,1.129-0.755,1.757c0.139,0.337,0.481,0.553,0.832,0.652
						c0.896,0.253,1.836-0.124,2.685-0.506c4.567-2.053,8.977-4.458,13.175-7.187c0.432-1.076,0.431-2.132,0.424-3.291
						c-0.005-0.923-0.038-1.845-0.064-2.768C295.358,358.252,294.202,359.16,293.085,360.519z"/>
				</g>
				<g>
					<g>
						<path style="fill:#333D4F;" d="M323.922,210.67H292.89c0,0-11.667,19.341-13.169,33.982
							c-1.502,14.641,10.17,108.833,10.17,108.833h7.884l7.785-109.465l0.085-0.511l2.266,121.614h7.508
							c0,0,16.287-95.789,18.915-113.96C336.961,232.991,323.922,210.67,323.922,210.67z"/>
						<g>
							<polygon style="fill:#262E3A;" points="307.006,210.67 305.344,210.67 305.344,247.046 305.559,244.02 305.644,243.509 
								307.006,316.582 							"/>
							<rect x="293.839" y="210.67" style="fill:#262E3A;" width="1.662" height="142.815"/>
							<path style="fill:#262E3A;" d="M289.749,216.343c-0.521,0.997-1.08,2.096-1.662,3.281v118.888
								c0.794,6.721,1.4,11.693,1.662,13.823V216.343z"/>
							<path style="fill:#262E3A;" d="M282.335,233.401v52.691c0.522,5.306,1.085,10.765,1.662,16.172v-73.427
								C283.409,230.331,282.849,231.86,282.335,233.401z"/>
							<polygon style="fill:#262E3A;" points="301.253,210.67 299.591,210.67 299.591,327.931 301.253,304.563 							"/>
							<path style="fill:#262E3A;" d="M330.015,223.844c-0.552-1.466-1.113-2.849-1.662-4.129v68.519
								c0.575-3.467,1.132-6.833,1.662-10.051V223.844z"/>
							<path style="fill:#262E3A;" d="M334.105,252.708c0.084-0.559,0.162-1.083,0.228-1.545c0.576-3.984,0.399-8.166-0.228-12.27
								V252.708z"/>
							<path style="fill:#262E3A;" d="M324.262,211.274c-0.217-0.392-0.341-0.604-0.341-0.604H322.6v111.965
								c0.545-3.242,1.102-6.554,1.662-9.894V211.274z"/>
							<rect x="311.096" y="210.67" style="fill:#262E3A;" width="1.662" height="154.453"/>
							<path style="fill:#262E3A;" d="M318.51,210.67h-1.662v146.027c0.465-2.746,1.027-6.064,1.662-9.815V210.67z"/>
						</g>
					</g>
					<g>
						<path style="fill:#C9DAF2;" d="M307.135,324.735c-0.075,0-0.136-0.06-0.137-0.135l-1.664-90.289l-4.476-6.293
							c-0.044-0.062-0.03-0.148,0.033-0.192c0.061-0.045,0.148-0.031,0.192,0.033l4.5,6.327c0.016,0.023,0.025,0.049,0.025,0.077
							l1.664,90.332c0.002,0.075-0.059,0.138-0.135,0.14C307.137,324.735,307.136,324.735,307.135,324.735z"/>
					</g>
				</g>
			</g>
			<path style="fill:#984F53;" d="M302.897,141.164l2.172,9.146l-4.138,0.487c0,0-1.04,9.787,10.338,9.787
				c11.378,0,3.15-10.894,3.15-10.894l-2.98-9.104L302.897,141.164z"/>
			<path style="fill:#894249;" d="M305.688,147.224c2.548,1.553,5.617,2.205,8.62,2.128l-2.87-8.766l-8.541,0.578l1.137,4.789
				C304.52,146.417,305.066,146.845,305.688,147.224z"/>
		</g>
		<g>
			<g>
				<path style="fill:#8B57BC;" d="M326.888,206.376c11.902,6.387,16.113-24.595,16.514-34.398
					c0.418-10.241-6.162-15.381-6.162-15.381s-2.907-1.882-8.978-2.717c0,0-20.664,17.102-14.476,56.79
					c6.188,39.689,22.665,42.634,26.76,39.933c4.095-2.701-14.232-41.467-14.232-41.467L326.888,206.376z"/>
				<g>
					<g>
						<path style="fill:#332E2E;" d="M330.211,184.649c-0.011,0-0.023-0.002-0.035-0.005c-0.073-0.019-0.118-0.094-0.098-0.167
							l5.739-21.708c0.02-0.073,0.092-0.118,0.168-0.098c0.073,0.019,0.117,0.094,0.098,0.167l-5.739,21.708
							C330.327,184.608,330.272,184.649,330.211,184.649z"/>
					</g>
					<g>
						<path style="fill:#332E2E;" d="M324.369,242.31c-0.045,0-0.088-0.021-0.115-0.062c-13.681-20.681-11.175-55.447-11.148-55.796
							c0.006-0.075,0.057-0.142,0.148-0.126c0.076,0.006,0.132,0.072,0.126,0.148c-0.027,0.348-2.525,35.02,11.104,55.623
							c0.042,0.063,0.024,0.148-0.039,0.191C324.422,242.302,324.395,242.31,324.369,242.31z"/>
					</g>
				</g>
			</g>
			<g>
				<path style="fill:#1B202B;" d="M326.313,128.936c0,0,19.634,54.996-7.084,50.363
					C286.63,173.645,326.313,128.936,326.313,128.936z"/>
				<g>
					<g>
						<g>
							<path style="fill:#984F53;" d="M326.313,128.936c0,0,1.143-3.906,3.798-1.988c2.645,1.911,0.702,9.355-4.096,7.834
								L326.313,128.936z"/>
							<path style="fill:#332E2E;" d="M326.314,134.623c0.124-0.666,0.273-1.324,0.442-1.973c0.177-0.647,0.359-1.293,0.625-1.904
								c0.254-0.612,0.575-1.203,1.032-1.665c0.448-0.471,1.121-0.702,1.798-0.57l-0.501-0.1c-0.17-0.029-0.342,0.02-0.518,0.029
								c-0.339,0.081-0.659,0.253-0.921,0.486c-0.527,0.468-0.861,1.093-1.142,1.715
								C326.631,131.919,326.356,133.267,326.314,134.623z"/>
						</g>
						<g>
							<g>
								<path style="fill:#984F53;" d="M315.877,146.54l6.536-4.537c1.32-0.916,2.312-2.247,2.762-3.789
									c0.955-3.277,1.12-6.299,1.145-7.469h0.004v-0.236c0.001-0.177,0-0.281,0-0.281v-6.838h-0.006
									c-0.062-7.963-6.531-14.4-14.508-14.4c-7.977,0-14.446,6.437-14.508,14.4h-0.005v0.106c0,0.003,0,0.005,0,0.007
									c0,0.003,0,0.005,0,0.007v6.716h0c0,0-0.002,0.116,0,0.311v0.206h0.003c0.025,1.17,0.189,4.193,1.145,7.471
									c0.45,1.543,1.442,2.873,2.762,3.789l6.535,4.535C310.188,148.238,313.431,148.238,315.877,146.54z"/>
								<g>
									<path style="fill:#1B202B;" d="M311.81,108.991c-7.977,0-14.446,6.437-14.508,14.4h-0.005v0.106c0,0.003,0,0.005,0,0.007
										c0,0.003,0,0.005,0,0.007v3.606c0,0,1.013-9.529,7.231-12.563c0,0,7.322,9.495,21.797,9.082v-0.246h-0.006
										C326.256,115.428,319.787,108.991,311.81,108.991z"/>
								</g>
							</g>
							<g>
								<g>
									<path style="fill:#332E2E;" d="M311.799,136.012c0.035,0,0.07-0.014,0.097-0.041c0.052-0.053,0.051-0.139-0.003-0.191
										l-2.166-2.103h2.087c0.074,0,0.135-0.061,0.135-0.135v-9.709c0-0.074-0.061-0.135-0.135-0.135s-0.135,0.061-0.135,0.135
										v9.574h-2.285c-0.055,0-0.104,0.033-0.125,0.084c-0.021,0.051-0.009,0.109,0.031,0.148l2.404,2.335
										C311.731,135.999,311.766,136.012,311.799,136.012z"/>
								</g>
								<g>
									<path style="fill:#1B202B;" d="M317.606,128.562c0,0.792,0.395,1.435,0.883,1.435c0.487,0,0.883-0.642,0.883-1.435
										c0-0.792-0.395-1.434-0.883-1.434C318.001,127.128,317.606,127.77,317.606,128.562z"/>
									<path style="fill:#D86C77;" d="M317.606,134.304c0,0.869,1.395,1.573,3.116,1.573s3.116-0.704,3.116-1.573
										c0-0.869-1.395-1.573-3.116-1.573S317.606,133.435,317.606,134.304z"/>
									<path style="fill:#333D4F;" d="M321.736,126.09c0,0,0.1-2.619-2.381-2.803c-2.453-0.183-2.955-0.021-3.168,0.049
										c-0.213,0.07-0.228,1.425-0.104,1.746C316.172,125.314,320.113,124.031,321.736,126.09z"/>
								</g>
								<g>
									<path style="fill:#1B202B;" d="M306.013,128.562c0,0.792-0.395,1.435-0.883,1.435c-0.487,0-0.883-0.642-0.883-1.435
										c0-0.792,0.395-1.434,0.883-1.434C305.618,127.128,306.013,127.77,306.013,128.562z"/>
									<path style="fill:#D86C77;" d="M306.013,134.304c0,0.869-1.395,1.573-3.116,1.573c-1.721,0-3.116-0.704-3.116-1.573
										c0-0.869,1.395-1.573,3.116-1.573C304.618,132.731,306.013,133.435,306.013,134.304z"/>
									<path style="fill:#333D4F;" d="M302.066,126.09c0,0-0.1-2.619,2.381-2.803c2.453-0.183,2.955-0.021,3.168,0.049
										c0.213,0.07,0.228,1.425,0.104,1.746C307.63,125.314,303.69,124.031,302.066,126.09z"/>
								</g>
								<path style="fill:#1B202B;" d="M313.05,140.586c0,1.227-0.722,2.221-1.612,2.221s-1.612-0.994-1.612-2.221
									c0-1.227,0.722-2.221,1.612-2.221S313.05,139.36,313.05,140.586z"/>
							</g>
						</g>
					</g>
				</g>
			</g>
			<g>
				<g>
					<path style="fill:#67BFEF;" d="M314.587,145.128c0-2.189-1.775-3.964-3.964-3.964s-3.964,1.775-3.964,3.964
						c0,0.791,0.237,1.523,0.636,2.141l-1.478,21.32l0.008,0.002c-0.03,0.236,0.514,0.553,1.243,0.716
						c0.742,0.166,1.387,0.107,1.44-0.13l4.808-21.155C314.093,147.298,314.587,146.274,314.587,145.128z"/>
					<g>
						<g>
							<path style="fill:#332E2E;" d="M310.968,148.924c-0.31,0-0.651-0.026-1.027-0.088c-0.075-0.012-0.126-0.083-0.113-0.158
								c0.013-0.075,0.083-0.122,0.158-0.113c2.247,0.374,3.219-0.626,3.229-0.636c0.036-0.028,1.152-0.785,1.234-2.805
								c0.082-2.004-0.99-2.596-1.036-2.62c-0.066-0.035-0.093-0.119-0.057-0.186c0.035-0.067,0.116-0.094,0.185-0.058
								c0.052,0.027,1.272,0.687,1.184,2.874c-0.088,2.172-1.283,2.97-1.334,3.004C313.376,148.158,312.643,148.924,310.968,148.924
								z"/>
						</g>
						<g>
							<path style="fill:#332E2E;" d="M308.923,148.559c-0.013,0-0.026-0.002-0.04-0.006c-2.082-0.631-2.331-2.934-2.333-2.957
								c-0.008-0.076,0.048-0.143,0.124-0.15c0.073,0,0.143,0.048,0.15,0.124c0.002,0.021,0.234,2.144,2.138,2.721
								c0.073,0.022,0.114,0.099,0.092,0.171C309.037,148.521,308.982,148.559,308.923,148.559z"/>
						</g>
					</g>
				</g>
				<g>
					<path style="fill:#984F53;" d="M320.398,171.971l-1.833-5.323l-4.014-14.574l-4.606-2.384l-4.99,0.777
						c0,0,0.341,1.883,4.534,1.52l1.047,0.524l-4.8,1.658l-1.396,2.428v5.688l1.658,2.094c0,0,0.96-1.92,0.174-2.705l1.571-0.436
						l2.793,1.745c0,0-1.183,2.618-0.592,4.276c0.592,1.658,4.78,7.33,4.78,7.33L320.398,171.971z"/>
					<g>
						<path style="fill:#332E2E;" d="M309.945,167.396c-0.056,0-0.109-0.035-0.129-0.091c-0.541-1.515,0.326-3.742,0.547-4.268
							l-2.641-1.651l-1.312,0.365c0.588,0.91-0.25,2.613-0.289,2.69c-0.021,0.042-0.062,0.071-0.109,0.076
							c-0.04,0.004-0.092-0.015-0.122-0.052l-1.658-2.094c-0.019-0.024-0.03-0.054-0.03-0.085v-5.688
							c0-0.024,0.007-0.048,0.018-0.069l1.396-2.428c0.017-0.029,0.043-0.05,0.074-0.061l4.491-1.551l-0.72-0.36
							c-4.237,0.354-4.627-1.554-4.642-1.635c-0.006-0.036,0.002-0.074,0.023-0.104c0.022-0.031,0.054-0.05,0.091-0.056l4.989-0.777
							c0.029-0.004,0.058,0.001,0.084,0.014l4.605,2.384c0.034,0.017,0.059,0.048,0.069,0.085l1.036,3.763
							c0.02,0.073-0.023,0.149-0.096,0.169c-0.077,0.02-0.149-0.023-0.169-0.096l-1.02-3.705l-4.512-2.335l-4.782,0.745
							c0.186,0.404,1.011,1.558,4.338,1.273c0.025-0.005,0.05,0.003,0.073,0.014l1.047,0.523c0.05,0.025,0.079,0.077,0.076,0.132
							c-0.003,0.055-0.04,0.102-0.092,0.121l-4.752,1.641l-1.352,2.351v5.604l1.488,1.88c0.211-0.496,0.676-1.78,0.11-2.346
							c-0.034-0.034-0.048-0.085-0.036-0.132c0.013-0.047,0.049-0.084,0.096-0.098l1.571-0.436c0.038-0.01,0.077-0.005,0.11,0.016
							l2.793,1.746c0.058,0.036,0.081,0.111,0.052,0.173c-0.011,0.026-1.153,2.587-0.587,4.173c0.026,0.071-0.012,0.15-0.083,0.175
							C309.977,167.394,309.961,167.396,309.945,167.396z"/>
					</g>
					<polygon style="fill:#C9DAF2;" points="313.441,174.486 310.623,170.988 319.908,165.259 321.47,170.467 					"/>
					<path style="fill:#8B57BC;" d="M311.9,174.486l10.004-5.779c0,0,15.055,26.199,13.992,32.813
						C334.833,208.135,322.197,217.749,311.9,174.486z"/>
					<g>
						<g>
							<path style="fill:#332E2E;" d="M326.198,206.17c-0.027,0-0.054-0.008-0.078-0.024c-3.721-2.55-9.231-10.107-14.354-31.628
								c-0.018-0.074,0.028-0.148,0.102-0.165c0.077-0.018,0.148,0.028,0.165,0.102c5.102,21.436,10.561,28.942,14.242,31.465
								c0.062,0.043,0.078,0.128,0.035,0.191C326.285,206.149,326.241,206.17,326.198,206.17z"/>
						</g>
						<g>
							<path style="fill:#332E2E;" d="M334.744,195.39c-0.057,0-0.111-0.036-0.13-0.093c-3.36-9.994-12.734-26.358-12.829-26.521
								c-0.037-0.066-0.015-0.15,0.051-0.188c0.067-0.038,0.15-0.015,0.188,0.051c0.094,0.165,9.483,16.551,12.851,26.571
								c0.024,0.072-0.014,0.15-0.086,0.175C334.774,195.388,334.759,195.39,334.744,195.39z"/>
						</g>
					</g>
					<g>
						<path style="fill:#332E2E;" d="M304.341,156.734c-0.056,0-0.109-0.034-0.129-0.09c-0.026-0.071,0.01-0.15,0.082-0.176
							l6.79-2.479c0.072-0.028,0.151,0.011,0.176,0.081c0.026,0.071-0.01,0.15-0.082,0.176l-6.79,2.479
							C304.372,156.731,304.356,156.734,304.341,156.734z"/>
					</g>
					<g>
						<path style="fill:#332E2E;" d="M306.173,161.811c-0.076,0-0.137-0.062-0.137-0.137v-3.652c0-0.065,0.046-0.122,0.11-0.135
							l5.499-1.115c0.072-0.017,0.147,0.033,0.162,0.107c0.015,0.075-0.033,0.147-0.107,0.162l-5.389,1.093v3.539
							C306.311,161.75,306.249,161.811,306.173,161.811z"/>
					</g>
					<g>
						<path style="fill:#332E2E;" d="M307.744,161.375c-0.013,0-0.027-0.002-0.041-0.007c-0.072-0.022-0.113-0.099-0.09-0.172
							l0.605-1.947c0.017-0.054,0.066-0.093,0.122-0.096l4.02-0.257c0.081-0.021,0.141,0.053,0.146,0.128
							c0.005,0.076-0.053,0.141-0.128,0.145l-3.926,0.251l-0.577,1.857C307.857,161.337,307.802,161.375,307.744,161.375z"/>
					</g>
				</g>
			</g>
		</g>
		<g>
			<g>
				<g>
					<path style="fill:#984F53;" d="M246.969,166.04l-4.691-7.036c0,0-0.988-3.49-3.58-3.72c-2.592-0.23-10.122,0.511-10.122,0.511
						v1.358c0,0-11.727,0.248-12.715-0.555v2.036l13.949,2.963c0,0,5.925,0.123,7.901,2.345c1.975,2.222,4.691,6.913,4.691,6.913
						L246.969,166.04z"/>
					<g>
						<path style="fill:#332E2E;" d="M235.59,157.289c-0.008,0-0.016-0.001-0.024-0.002c-1.623-0.285-6.93-0.001-6.983,0.002
							c-0.003,0-0.005,0-0.008,0c-0.072,0-0.133-0.057-0.137-0.13c-0.004-0.076,0.054-0.141,0.13-0.145
							c0.218-0.012,5.39-0.289,7.046,0.002c0.075,0.013,0.125,0.084,0.112,0.159C235.713,157.242,235.655,157.289,235.59,157.289z"
							/>
					</g>
					<g>
						<path style="fill:#332E2E;" d="M229.686,158.693c-0.006,0-0.013-0.001-0.019-0.002l-13.825-1.959
							c-0.075-0.01-0.127-0.08-0.117-0.155c0.01-0.076,0.08-0.134,0.155-0.117l13.825,1.959c0.075,0.01,0.127,0.08,0.117,0.155
							C229.812,158.644,229.753,158.693,229.686,158.693z"/>
					</g>
				</g>
				<g>
					<g>
						<g>
							<polygon style="fill:#C9DAF2;" points="249.314,167.645 247.216,164.558 240.573,170.977 243.018,173.6 							"/>
							<path style="fill:#8B57BC;" d="M293.81,151.382l-29.411,31.255l-14.877-16.86l-8.95,8.5c0,0,17.347,22.154,22.154,21.527
								c4.807-0.627,24.789-16.915,24.789-16.915L293.81,151.382z"/>
						</g>
						<g>
							<path style="fill:#332E2E;" d="M262.609,195.95c-3.355,0-17.443-15.875-18.05-16.56c-0.05-0.057-0.045-0.144,0.012-0.194
								c0.057-0.051,0.144-0.045,0.194,0.012c5.094,5.756,15.257,16.469,17.822,16.469c0.042,0,0.082-0.003,0.119-0.009
								c3.526-0.539,19.37-12.646,19.529-12.768c0.061-0.047,0.147-0.034,0.193,0.025c0.046,0.061,0.035,0.146-0.025,0.193
								c-0.654,0.501-16.059,12.272-19.655,12.822C262.704,195.947,262.658,195.95,262.609,195.95z"/>
						</g>
					</g>
				</g>
			</g>
			<g>
				<path style="fill:#8B57BC;" d="M300.971,150.569c0,0-3.398,18.251-4.226,60.101s-9.143,44.123-19.698,40.669
					c-10.555-3.453,11.277-40.669,11.277-40.669l-3.203-32.766l8.688-26.522L300.971,150.569z"/>
				<g>
					<path style="fill:#332E2E;" d="M279.329,228.463c-0.018,0-0.036-0.003-0.054-0.011c-0.07-0.03-0.102-0.11-0.073-0.18
						c1.337-3.163,8.554-16.819,8.982-17.629c-0.172-1.763-3.034-31.118-2.893-33.68c0.143-2.598,6.735-18.925,7.016-19.619
						c0.029-0.071,0.109-0.106,0.179-0.076c0.07,0.029,0.104,0.109,0.076,0.179c-0.068,0.17-6.856,16.979-6.995,19.531
						c-0.141,2.565,2.865,33.369,2.896,33.68c0.003,0.027-0.003,0.054-0.016,0.078c-0.076,0.144-7.625,14.411-8.991,17.644
						C279.434,228.431,279.383,228.463,279.329,228.463z"/>
				</g>
			</g>
		</g>
	</g>
	<g>
		<g>
			<path style="fill:#332E2E;" d="M81.903,376.977c-0.598,0.275-1.253,0.448-1.782,0.84c-1.078,0.8-1.331,2.51-0.53,3.588
				c0.299,0.402,0.708,0.708,1.119,0.994c3.659,2.547,8.023,4.069,12.473,4.349c1.084,0.068,2.255,0.04,3.138-0.593
				c1.527-1.094,1.459-3.345,1.234-5.21c-0.339-2.801-0.677-5.602-1.016-8.403c-0.033-0.276-0.08-0.577-0.287-0.762
				c-0.181-0.161-0.44-0.19-0.681-0.211c-1.599-0.14-3.204-0.224-4.809-0.25c-1.157-0.019-4.121-0.497-5.096,0.138
				c-0.782,0.509-0.656,1.936-1.05,2.777C84.06,375.421,83.099,376.428,81.903,376.977z"/>
			<path style="fill:#332E2E;" d="M150.301,376.977c0.598,0.275,1.253,0.448,1.782,0.84c1.078,0.8,1.331,2.51,0.53,3.588
				c-0.299,0.402-0.708,0.708-1.119,0.994c-3.659,2.547-8.023,4.069-12.473,4.349c-1.084,0.068-2.255,0.04-3.138-0.593
				c-1.527-1.094-1.459-3.345-1.234-5.21c0.339-2.801,0.677-5.602,1.016-8.403c0.033-0.276,0.08-0.577,0.288-0.762
				c0.181-0.161,0.44-0.19,0.681-0.211c1.599-0.14,3.204-0.224,4.809-0.25c1.157-0.019,4.122-0.497,5.096,0.138
				c0.781,0.509,0.656,1.936,1.05,2.777C148.145,375.421,149.106,376.428,150.301,376.977z"/>
			<g>
				<polygon style="fill:#333D4F;" points="93.19,226.492 83.35,372.835 98.741,372.835 117.284,260.543 132.602,372.835 
					150.254,372.835 140.76,226.492 				"/>
				<g>
					<g>
						<path style="fill:#C9DAF2;" d="M117.1,257.695c-0.06,0-0.115-0.041-0.131-0.102c-2.467-9.76-1.178-20.303-0.039-29.605
							c0.009-0.074,0.063-0.126,0.15-0.117c0.074,0.009,0.126,0.076,0.117,0.15c-1.136,9.278-2.423,19.795,0.033,29.507
							c0.018,0.072-0.025,0.145-0.098,0.163C117.122,257.694,117.111,257.695,117.1,257.695z"/>
					</g>
					<g>
						<path style="fill:#C9DAF2;" d="M94.183,238.645c-0.058,0-0.11-0.037-0.128-0.095c-0.022-0.071,0.017-0.146,0.088-0.168
							c4.387-1.366,9.11-1.753,13.664-1.119c0.074,0.01,0.125,0.078,0.115,0.152c-0.011,0.074-0.082,0.119-0.153,0.115
							c-4.51-0.63-9.197-0.246-13.546,1.108C94.21,238.643,94.197,238.645,94.183,238.645z"/>
					</g>
					<path style="fill:#C9DAF2;" d="M101.293,239.306c0,0.44-0.356,0.796-0.796,0.796c-0.44,0-0.796-0.356-0.796-0.796
						c0-0.44,0.356-0.796,0.796-0.796C100.937,238.51,101.293,238.867,101.293,239.306z"/>
					<g>
						<path style="fill:#C9DAF2;" d="M137.904,238.645c-0.014,0-0.026-0.002-0.04-0.006c-4.35-1.355-9.034-1.737-13.546-1.108
							c-0.073,0.004-0.142-0.042-0.153-0.115c-0.01-0.074,0.041-0.142,0.115-0.152c4.553-0.634,9.276-0.247,13.663,1.119
							c0.072,0.022,0.111,0.097,0.088,0.168C138.014,238.608,137.962,238.645,137.904,238.645z"/>
					</g>
					<path style="fill:#C9DAF2;" d="M130.794,239.306c0,0.44,0.356,0.796,0.796,0.796c0.44,0,0.796-0.356,0.796-0.796
						c0-0.44-0.356-0.796-0.796-0.796C131.15,238.51,130.794,238.867,130.794,239.306z"/>
				</g>
			</g>
		</g>
		<g>
			<g>
				<g>
					<path style="fill:#F4BBB3;" d="M158.523,255.27c0,0-1.494-8.465-1.593-8.764l0.1-2.091h-2.589h-3.884h-1.593
						c0,0-3.486,2.988-3.286,6.573c0.199,3.585-0.008,9.606-0.008,9.606h0c-0.626,0.152-1.206,0.498-1.347,1.249l2.451,0.896
						c-1.295,0-1.693,0.896-1.693,0.896l3.187,0.896l5.876-1.793l3.641-6.528L158.523,255.27z M148.963,253.677
						c0,0,2.347,0,2.468,0.299c0.121,0.299,0.619,3.187,0.619,3.187l-0.945,1.654l-0.847,0.337
						c-1.892-0.199-2.762,1.394-2.762,1.394L148.963,253.677z"/>
					<g>
						<g>
							<path style="fill:#332E2E;" d="M151.752,262.874h-4.979c-0.016,0-0.031-0.003-0.046-0.008l-2.451-0.897
								c-0.07-0.025-0.106-0.103-0.08-0.173c0.026-0.07,0.103-0.109,0.173-0.08l2.429,0.888h4.904l3.048-2.753
								c0.055-0.049,0.14-0.047,0.191,0.009c0.049,0.056,0.045,0.141-0.01,0.19l-3.087,2.788
								C151.817,262.862,151.786,262.874,151.752,262.874z"/>
						</g>
						<g>
							<path style="fill:#332E2E;" d="M151.571,258.835c-0.053,0-0.102-0.03-0.124-0.082c-0.028-0.068,0.003-0.148,0.072-0.177
								l1.496-0.629l0.634-4.073c-0.319-0.51-3.286-5.363-3.365-9.423c-0.001-0.074,0.058-0.136,0.133-0.137c0,0,0.001,0,0.002,0
								c0.074,0,0.134,0.059,0.135,0.132c0.081,4.194,3.317,9.276,3.35,9.327c0.018,0.027,0.024,0.061,0.019,0.093l-0.653,4.197
								c-0.006,0.046-0.037,0.085-0.08,0.103l-1.565,0.659C151.606,258.832,151.589,258.835,151.571,258.835z"/>
						</g>
						<g>
							<path style="fill:#332E2E;" d="M150.258,261.381c-0.012,0-0.022-0.001-0.033-0.004l-2.762-0.698
								c-0.073-0.018-0.116-0.091-0.098-0.163c0.019-0.072,0.091-0.121,0.163-0.098l2.727,0.689l4.505-1.273l3.657-4.646
								c0.048-0.059,0.132-0.069,0.189-0.023c0.059,0.046,0.069,0.131,0.023,0.189l-3.685,4.681
								c-0.018,0.022-0.042,0.039-0.069,0.046l-4.582,1.295C150.282,261.379,150.27,261.381,150.258,261.381z"/>
						</g>
					</g>
				</g>
				<path style="fill:#556AA1;" d="M147.721,162.137c0,0,4.891,5.881,6.774,15.142c1.884,9.262,3.806,38.145,3.806,38.145
					l-1.096,29.726h-9.488v-30.472l-3.174-25.848L147.721,162.137z"/>
			</g>
			<g>
				<g>
					<g>
						<g>
							<g>
								<g>
									<g>
										<g>
											<path style="fill:#F4BBB3;" d="M130.554,125.662c-0.056-7.21-5.914-13.039-13.137-13.039
												c-7.224,0-13.081,5.829-13.137,13.039h-0.005v0.096c0,0.002,0,0.005,0,0.007s0,0.005,0,0.007V135.9h0.007
												c0,0.046-0.007,0.091-0.007,0.137c0,7.259,5.884,13.143,13.143,13.143c7.258,0,13.143-5.884,13.143-13.143
												c0-0.046-0.006-0.091-0.007-0.137h0.007v-10.239H130.554z"/>
										</g>
									</g>
								</g>
							</g>
						</g>
					</g>
					<path style="fill:#9B2F2F;" d="M134.79,124.597c0.802-0.852,1.185-2.071,0.914-3.3c-0.3-1.363-1.329-2.363-2.583-2.72
						c-0.214-0.489-0.452-0.962-0.706-1.424c0.57-1.132,0.482-2.537-0.356-3.598c-0.77-0.974-1.969-1.393-3.115-1.229
						c0.018-1.131-0.525-2.244-1.549-2.895c-1.057-0.671-2.34-0.665-3.373-0.119c-0.333-1.12-1.227-2.04-2.446-2.325
						c-1.219-0.285-2.428,0.144-3.223,1.001c-0.684-0.948-1.831-1.521-3.076-1.388c-1.245,0.133-2.245,0.937-2.713,2.008
						c-0.958-0.669-2.23-0.832-3.362-0.295c-1.131,0.537-1.81,1.625-1.898,2.79c-1.125-0.316-2.38-0.05-3.271,0.83
						c-0.891,0.88-1.173,2.131-0.872,3.26c-1.166,0.073-2.263,0.738-2.814,1.863c-0.551,1.125-0.404,2.399,0.253,3.365
						c-1.077,0.454-1.893,1.443-2.042,2.687c-0.149,1.243,0.41,2.398,1.349,3.093c-0.867,0.784-1.311,1.987-1.042,3.21
						c0.17,0.771,0.601,1.41,1.169,1.872c-0.164,0.714-0.111,1.483,0.229,2.195c0.332,0.695,0.877,1.212,1.514,1.536
						c0.01,0.715,0.234,1.432,0.711,2.036c0.783,0.991,2.011,1.407,3.175,1.219c4.008,3.643,9.653,5.363,15.344,4.109
						c2.328-0.513,4.442-1.473,6.271-2.77c1.121,0.309,2.369,0.042,3.257-0.834c0.891-0.88,1.173-2.131,0.872-3.26
						c1.166-0.073,2.263-0.738,2.814-1.863c0.551-1.125,0.404-2.399-0.253-3.365c1.077-0.454,1.893-1.443,2.042-2.687
						C136.154,126.412,135.653,125.301,134.79,124.597z"/>
				</g>
				<g>
					<polygon style="fill:#F4BBB3;" points="126.641,154.419 127.355,144.089 117.3,147.511 107.245,144.089 108.075,154.419 
						86.851,162.137 93.19,226.492 117.3,226.492 140.76,226.492 147.718,162.137 					"/>
					<path style="fill:#556AA1;" d="M133.586,156.962c-3.899,5.153-10.079,8.484-17.039,8.484c-6.756,0-12.776-3.141-16.689-8.038
						l-13.007,4.73l4.473,65.868l25.961,1.818l25.302-1.818l5.132-65.868L133.586,156.962z"/>
				</g>
			</g>
			<g>
				<g>
					<g>
						<path style="fill:#F4BBB3;" d="M78.838,156.195l0.906-4.415l-3.17-6.793l1.327-1.698l1.277-5.774l3.057,0.679l1.698-0.679
							l1.132-1.698l3.962-0.792v1.245l-2.717,1.698c0,0-1.925,3.396-1.698,3.736c0.226,0.34,2.717,2.151,3.17,1.812
							c0.453-0.34,0.788-5.095,0.788-5.095l1.589-0.34v7.529l-3.849,10.132L78.838,156.195z"/>
						<g>
							<g>
								<g>
									<path style="fill:#332E2E;" d="M81.098,143.943c-0.075,0-0.135-0.061-0.135-0.135v-2.431c0-0.029,0.009-0.057,0.026-0.08
										l2.835-3.862c0.043-0.059,0.128-0.074,0.188-0.028c0.06,0.044,0.073,0.128,0.028,0.188l-2.809,3.826v2.387
										C81.232,143.883,81.172,143.943,81.098,143.943z"/>
								</g>
								<g>
									<path style="fill:#332E2E;" d="M78.998,144.717c-0.075,0-0.135-0.061-0.135-0.135v-2.873c0-0.034,0.013-0.066,0.036-0.091
										l3.237-3.514c0.051-0.054,0.136-0.058,0.19-0.008c0.055,0.051,0.058,0.135,0.007,0.19l-3.202,3.475v2.821
										C79.133,144.656,79.073,144.717,78.998,144.717z"/>
								</g>
							</g>
							<g>
								<path style="fill:#556AA1;" d="M86.851,137.515l-2.466,5.477c-0.001,0.002-0.003,0.002-0.004,0.004
									c-0.001,0.002,0,0.004,0,0.005l-0.012,0.027l0.011,0.005c-0.077,0.258,0.239,0.64,0.748,0.876
									c0.532,0.247,1.06,0.238,1.18-0.02l2.72-7.619L86.851,137.515z"/>
								<path style="fill:#67BFEF;" d="M86.308,143.889c-0.119,0.258-0.648,0.267-1.18,0.02c-0.532-0.247-0.866-0.656-0.747-0.913
									c0.119-0.258,0.648-0.266,1.18-0.02C86.093,143.223,86.427,143.632,86.308,143.889z"/>
							</g>
						</g>
					</g>
					<path style="fill:#556AA1;" d="M77.902,155.13c0,0-4.404,21.883,0.295,25.721c4.699,3.838,8.655-18.714,8.655-18.714v-7.007
						H77.902z"/>
				</g>
				<g>
					<path style="fill:#556AA1;" d="M86.851,162.137l-8.179,11.018c0,0-6.492,7.628,4.341,9.772l5.558-3.328L86.851,162.137z"/>
					<g>
						<path style="fill:#332E2E;" d="M78.672,173.284c-0.027,0-0.053-0.008-0.076-0.025c-0.057-0.043-0.069-0.123-0.027-0.18
							l8.178-11.018c0.043-0.057,0.124-0.068,0.18-0.027c0.057,0.043,0.069,0.123,0.027,0.18l-8.178,11.018
							C78.751,173.266,78.712,173.284,78.672,173.284z"/>
					</g>
				</g>
			</g>
		</g>
	</g>
	<g>
		<g>
			<g>
				<g>
					<path style="fill:#F4BBB3;" d="M640.348,262.613l0.047,14.901l-7.852,65.584l7.091,4.339c0,0,12.743-49.648,20.574-84.824
						H640.348z"/>
					<g>
						<path style="fill:#F4BBB3;" d="M632.543,343.098c0,0-2.306,0.301-3.42,3.239c-1.114,2.938,2.306,3.748,1.71,8.206
							c-0.596,4.458-2.318,13.677,8.522,13.474l0.279-20.58L632.543,343.098z"/>
						<path style="fill:#1B202B;" d="M632.543,343.098c0,0-2.306,0.301-3.42,3.239c-1.114,2.938,2.306,3.748,1.71,8.206
							c-0.596,4.458-2.318,13.677,8.522,13.474l0.081-6.007c0,0-5.352,2.396-5.17-3.148c0.182-5.545-1.924-9.347-3.034-11.424
							C630.124,345.36,632.543,343.098,632.543,343.098z"/>
					</g>
				</g>
				<g>
					<g>
						<path style="fill:#F4BBB3;" d="M622.976,262.613c4.315,13.954,9.567,26.461,9.567,26.461l10.681,68.061h7.682v-69.762
							l-3.24-24.76H622.976z"/>
						<g>
							<path style="fill:#F4BBB3;" d="M643.224,357.135c0,0-1.944,6.018-2.046,9.969c-0.101,3.951,0.105,13.879,9.727,16.108
								c0,0,3.848-2.33,3.646-8.206c-0.203-5.876-3.646-6.667-3.646-17.871H643.224z"/>
							<path style="fill:#1B202B;" d="M651.864,365.635l-0.01-0.009c0,0,2.697,9.381-3.036,9.077
								c-5.733-0.303-6.901-12.694-6.901-12.694l0,0c-0.377,1.693-0.699,3.551-0.738,5.096c-0.101,3.951,0.105,13.879,9.727,16.108
								c0,0,3.848-2.33,3.646-8.206C654.419,371.158,652.899,369.476,651.864,365.635z"/>
						</g>
					</g>
					<g>
						<g>
							<path style="fill:#332E2E;" d="M650.905,306.846c-0.077,0-0.139-0.062-0.139-0.139v-19.334l-2.827-21.595
								c-0.01-0.076,0.043-0.147,0.119-0.156c0.091-0.013,0.145,0.044,0.156,0.119l2.828,21.614l0.001,19.353
								C651.044,306.784,650.983,306.846,650.905,306.846z"/>
						</g>
						<g>
							<path style="fill:#332E2E;" d="M641.703,347.576c-0.067,0-0.127-0.049-0.137-0.117l-5.895-37.563
								c-0.012-0.076,0.039-0.147,0.115-0.158c0.091-0.02,0.148,0.04,0.158,0.115l5.895,37.563c0.012,0.076-0.039,0.147-0.115,0.158
								C641.717,347.576,641.709,347.576,641.703,347.576z"/>
						</g>
					</g>
				</g>
			</g>
			<g>
				<g>
					<g>
						<polygon style="fill:#F4BBB3;" points="652.756,157.609 652.756,157.609 646.563,155.771 648.764,142.659 630.594,142.389 
							634.191,155.779 627.436,157.858 627.436,157.858 617.579,160.579 627.829,206.299 654.531,206.401 662.764,160.58 						"/>
					</g>
					<g>
						<g>
							<g>
								<path style="fill:#E09B94;" d="M640.443,151.508c4.397-0.364,7.911-3.895,8.258-8.468l0.064-0.382l-18.17-0.27l1.063,3.957
									C633.64,149.066,636.851,151.805,640.443,151.508z"/>
							</g>
						</g>
					</g>
					<path style="fill:#D13333;" d="M666.258,231.615c-1.351-14.93-11.727-25.214-11.727-25.214l-0.063-0.001l4.298-22.722
						c0,0-4.433-5.479-2.184-12.467l3.614-11.646l-1.035-0.305l-3.461,11.405c0,0-12.285-1.091-14.938,9.647
						c-2.654-10.739-14.938-9.647-14.938-9.647l-3.461-11.405l-1.035,0.305l3.614,11.646c2.249,6.988-2.184,12.467-2.184,12.467
						l5.071,22.621c0,0-9.83,8.686-11.841,25.276c-0.977,8.062,1.906,22.242,5.769,34.183h39.589
						C665.179,248.745,666.672,236.196,666.258,231.615z"/>
				</g>
				<g>
					<path style="fill:#F4BBB3;" d="M617.579,160.579c0,0-6.139,0.658-8.907,6.987c-2.769,6.329-11.486,26.349-11.486,26.349
						l16.784-5.716l7.786-16.013L617.579,160.579z"/>
					<path style="opacity:0.27;fill:#332E2E;" d="M626.06,156.963c0,0,4.306,14.775,1.526,25.756
						c-2.78,10.981-19.391,13.85-31.455,11.855l7.4-20.429c0,0,5.939-17.182,13.846-15.525L626.06,156.963z"/>
				</g>
			</g>
			<g>
				<path style="fill:#9B2F2F;" d="M617.727,170.836c-0.01-0.147-0.041-0.283-0.04-0.435c0.001-0.358,0.557-0.357,0.556,0
					c-0.014,5.856,9.087,7.266,10.53,1.46c0.047-0.189,0.331-0.287,0.464-0.122c3.238,3.997,9.972,1.078,10.952-3.456
					c0.06-0.278-0.104-0.202,0,0c1.015-0.66,2.078-1.46,2.53-2.631c1.076-2.791,0.476-6.593-1.657-8.689
					c-1.066-1.048-1.768-2.582-3.245-2.818c-1.476-0.236-2.812-0.18-3.792,0.948l-2.229-10.467c0,0-2.112-1.465-4.164-4.644
					c-2.609-4.04-1.664-7.341-1.664-7.341s-3.058,1.186-4.696-2.62c-1.638-3.806,0.674-5.739,1.859-5.856
					c1.184-0.117,2.182,0.836,2.695,2.397c0,0,0.503-3.714,1.144-6.451c0.64-2.737,3.616-2.754,3.616-2.754l8.151-7.743
					c-1.029-1.406-3.666-2.98-5.407-3.031c-1.741-0.051-3.488,0.741-4.598,2.084c-3.459-2.01-8.226-2.896-11.498-0.593
					c-1.93,1.358-3.117,3.62-3.458,5.956c-0.341,2.336,0.105,4.736,0.957,6.937c-3.834,0.098-6.831,3.847-6.957,7.68
					c-0.126,3.833,3.09,7.476,6.909,7.826c-3.221,1.866-5.606,4.267-6.795,7.794c-1.19,3.527-0.163,7.957,3.026,9.876
					c1.563,0.941,3.455,1.203,5.277,1.116c-2.285,0.965-4.13,3.225-5.047,5.529c-0.917,2.304-0.732,5.062,0.649,7.122
					C613.081,169.834,615.429,171.019,617.727,170.836z"/>
				<g>
					<g>
						<g>
							<path style="fill:#F4BBB3;" d="M625.824,126.686c0,0-1.155-3.948-3.839-2.009c-2.674,1.932-0.71,9.456,4.14,7.919
								L625.824,126.686z"/>
							<path style="fill:#332E2E;" d="M625.824,132.433c-0.125-0.673-0.276-1.338-0.447-1.994c-0.179-0.654-0.363-1.307-0.632-1.924
								c-0.256-0.618-0.581-1.216-1.043-1.683c-0.452-0.476-1.133-0.71-1.817-0.576l0.507-0.101
								c0.172-0.029,0.346,0.021,0.524,0.029c0.342,0.081,0.666,0.256,0.931,0.491c0.532,0.473,0.871,1.105,1.155,1.733
								C625.504,129.7,625.781,131.063,625.824,132.433z"/>
						</g>
						<g>
							<g>
								<g>
									<g>
										<g>
											<path style="fill:#F4BBB3;" d="M655.189,131.674v-0.24c0.002-0.18,0-0.287,0-0.287v-6.97h-0.006
												c-0.059-7.594-5.836-13.825-13.24-14.596c-0.478-0.047-0.962-0.073-1.453-0.073c-8.132,0-14.725,6.562-14.789,14.678
												h-0.005v0.108c0,0.003,0,0.005,0,0.008s0,0.005,0,0.008v6.846h0c0,0-0.002,0.118,0,0.317v0.21h0.003
												c0.026,1.193,0.193,4.274,1.167,7.615c0.458,1.572,1.47,2.929,2.815,3.862l6.662,4.623c2.493,1.73,5.799,1.73,8.292,0
												l6.663-4.624c0.992-0.689,1.798-1.61,2.339-2.675c1.312-3.78,1.518-7.476,1.547-8.81H655.189z"/>
										</g>
									</g>
								</g>
								<path style="fill:#9B2F2F;" d="M640.394,109.499c-8.131,0-14.725,6.562-14.788,14.678H625.6v0.108c0,0.003,0,0.005,0,0.008
									s0,0.005,0,0.008v3.675c0,0,4.76-6.796,6.336-14.217c0,0,8.498,11.089,23.252,10.668v-0.25h-0.006
									C655.12,116.06,648.526,109.499,640.394,109.499z"/>
							</g>
							<g>
								<g>
									<path style="fill:#332E2E;" d="M642.866,138.089c-0.036,0-0.072-0.014-0.099-0.042c-0.053-0.054-0.052-0.141,0.003-0.195
										l2.207-2.143h-2.127c-0.076,0-0.138-0.062-0.138-0.138v-9.897c0-0.076,0.062-0.138,0.138-0.138
										c0.076,0,0.138,0.062,0.138,0.138v9.759h2.329c0.056,0,0.106,0.034,0.127,0.086c0.021,0.052,0.009,0.111-0.032,0.15
										l-2.451,2.38C642.935,138.076,642.9,138.089,642.866,138.089z"/>
								</g>
								<g>
									<path style="fill:#332E2E;" d="M636.947,130.495c0,0.808-0.403,1.462-0.9,1.462s-0.9-0.655-0.9-1.462
										c0-0.808,0.403-1.462,0.9-1.462S636.947,129.687,636.947,130.495z"/>
									<ellipse style="fill:#D86C77;" cx="633.771" cy="136.348" rx="3.176" ry="1.603"/>
									<path style="fill:#B53939;" d="M632.539,128.344c0,0-0.76-2.561,1.643-3.37c2.377-0.8,2.913-0.767,3.141-0.752
										c0.228,0.015,0.585,1.35,0.544,1.698C637.837,126.172,633.622,125.901,632.539,128.344z"/>
								</g>
								<g>
									<path style="fill:#332E2E;" d="M648.764,130.495c0,0.808,0.403,1.462,0.9,1.462s0.9-0.655,0.9-1.462
										c0-0.808-0.403-1.462-0.9-1.462S648.764,129.687,648.764,130.495z"/>
									<path style="fill:#D86C77;" d="M648.764,136.348c0,0.886,1.422,1.603,3.176,1.603c1.754,0,2.763-0.718,2.763-1.603
										c0-0.885-1.009-1.603-2.763-1.603C650.186,134.745,648.764,135.462,648.764,136.348z"/>
									<path style="fill:#B53939;" d="M653.685,128.817c0,0,0.76-2.561-1.643-3.37c-2.377-0.8-2.913-0.767-3.141-0.752
										c-0.228,0.015-0.585,1.35-0.544,1.698C648.387,126.645,652.602,126.374,653.685,128.817z"/>
								</g>
								<g>
									<g>
										<path style="fill:#332E2E;" d="M642.946,140.323c-0.006,0-0.011,0-0.017,0c-3.667-0.004-4.171-1.594-4.19-1.662
											c-0.021-0.073,0.021-0.15,0.095-0.172c0.069-0.021,0.15,0.02,0.171,0.094c0.009,0.027,0.505,1.458,3.924,1.462
											c0.005,0,0.011,0,0.017,0c3.413,0,3.84-1.443,3.844-1.457c0.02-0.074,0.096-0.118,0.169-0.099
											c0.074,0.02,0.118,0.094,0.1,0.168C647.042,138.725,646.6,140.323,642.946,140.323z"/>
									</g>
									<g>
										<path style="fill:#332E2E;" d="M645.013,145.069c-0.559,0.591-1.266,0.891-2.104,0.891c-0.786,0-1.461-0.285-2.004-0.847
											c-1.486-1.539-1.637-4.733-1.646-5.755c0.535,0.454,1.597,0.964,3.67,0.966c0.005,0,0.01,0,0.015,0
											c2.061,0,3.101-0.508,3.618-0.964C646.573,140.373,646.481,143.516,645.013,145.069z"/>
										<path style="fill:#D86C77;" d="M646.055,143.133c-0.811-0.458-1.903-0.744-3.111-0.744c-1.213,0-2.309,0.287-3.121,0.749
											c0.243,0.747,0.583,1.457,1.083,1.975c0.543,0.562,1.218,0.847,2.004,0.847c0.837,0,1.545-0.3,2.104-0.891
											C645.5,144.555,645.825,143.861,646.055,143.133z"/>
									</g>
								</g>
							</g>
						</g>
					</g>
				</g>
			</g>
			<g>
				<g>
					<path style="fill:#556AA1;" d="M635.608,168.422h-14.2c0,0-0.19,1.461-0.157,3.445c-0.855-0.559-2.177-1.277-2.901-0.914
						c-1.123,0.563-2.018,12.113,4.891,9.026l0,0c1.091,1.616,2.753,2.74,5.267,2.74
						C637.478,182.719,635.608,168.422,635.608,168.422z M618.639,175.233c-0.306-3.629,1.683-2.682,2.67-2.006
						c0.12,1.75,0.446,3.706,1.191,5.389C621.398,178.848,618.951,178.938,618.639,175.233z"/>
					<path style="fill:#332E2E;" d="M635.609,168.422c0,0.24-3.179,0.434-7.1,0.434c-3.921,0-7.1-0.195-7.1-0.434
						c0-0.24,3.179-0.434,7.1-0.434C632.43,167.988,635.609,168.182,635.609,168.422z"/>
				</g>
				<g>
					<path style="fill:#F4BBB3;" d="M597.186,193.916l12.933-11.389l4.288,4.774c0,0-7.08,17.066-11.72,17.136
						C597.765,204.51,594.29,202.216,597.186,193.916z"/>
					<g>
						<path style="fill:#F4BBB3;" d="M610.119,182.527l1.576-1.62l-0.448-6.871l4.108-2.315h1.643l2.685-1.758h2.073l-1.099,2.057
							l0.164,3.021l0.935,0.713v2.689l-5.356,0.189v0.309h4.108l1.348,0.713v2.374l-1.945,0.075l-2.331,1.718
							c0,0,0.363,3.331-3.171,3.481L610.119,182.527z"/>
						<g>
							<path style="fill:#332E2E;" d="M621.756,169.824h-2.073c-0.027,0-0.053,0.008-0.076,0.023l-2.651,1.735h-1.602
								c-0.024,0-0.048,0.006-0.068,0.018l-4.108,2.315c-0.047,0.026-0.074,0.076-0.07,0.13l0.445,6.809l-1.527,1.57l-10.888,9.589
								c-0.057,0.05-0.063,0.138-0.012,0.196c0.027,0.032,0.066,0.047,0.104,0.047c0.033,0,0.065-0.011,0.092-0.035l10.89-9.59
								c0.002-0.001,0.001-0.004,0.003-0.006c0.001-0.001,0.004-0.001,0.005-0.002l1.576-1.62c0.027-0.028,0.041-0.066,0.039-0.106
								l-0.443-6.784l4.001-2.254h1.606c0.027,0,0.053-0.008,0.076-0.023l2.651-1.735h2.031c0.077,0,0.139-0.062,0.139-0.139
								C621.894,169.887,621.833,169.824,621.756,169.824z"/>
							<path style="fill:#332E2E;" d="M620.821,174.902c-0.003,0-0.008,0-0.012,0.001l-5.503,0.465
								c-0.076,0.007-0.132,0.074-0.127,0.15c0.007,0.072,0.067,0.127,0.139,0.127c0.003,0,0.008,0,0.012-0.001l5.503-0.465
								c0.076-0.006,0.132-0.074,0.127-0.15C620.954,174.957,620.893,174.902,620.821,174.902z"/>
							<path style="fill:#332E2E;" d="M620.151,181.954l-3.212,0.003c-0.077,0-0.139,0.062-0.139,0.139
								c0,0.077,0.062,0.139,0.139,0.139l3.212-0.003c0.077,0,0.139-0.062,0.139-0.139
								C620.29,182.016,620.228,181.954,620.151,181.954z"/>
						</g>
					</g>
				</g>
			</g>
		</g>
		<g>
			<g>
				<path style="fill:#332E2E;" d="M686.111,318.474l30.472-51.686h-1.249l-27.554,46.736l7.153-20.531
					c0.001-0.001,0.001-0.003,0.002-0.005l7.757-22.264c0.099-0.281-0.051-0.586-0.331-0.684c-0.278-0.099-0.586,0.049-0.684,0.331
					l-7.293,20.933l-8.402-19.607c-0.011-0.025-0.03-0.041-0.044-0.063c-0.022-0.037-0.042-0.074-0.073-0.105
					c-0.026-0.026-0.059-0.042-0.09-0.062c-0.026-0.017-0.047-0.04-0.076-0.053c-0.003-0.001-0.006-0.001-0.009-0.002
					c-0.032-0.013-0.067-0.014-0.101-0.021c-0.035-0.007-0.068-0.02-0.103-0.02c-0.021,0-0.042,0.009-0.063,0.012
					c-0.048,0.006-0.095,0.011-0.14,0.029c-0.003,0.001-0.006,0.001-0.008,0.002c-0.028,0.012-0.047,0.034-0.071,0.049
					c-0.033,0.021-0.067,0.038-0.095,0.066c-0.031,0.031-0.05,0.068-0.072,0.104c-0.014,0.022-0.033,0.039-0.044,0.064
					l-8.401,19.606l-7.292-20.933c-0.098-0.282-0.408-0.428-0.685-0.332c-0.281,0.099-0.43,0.405-0.331,0.685l14.911,42.8
					l-27.554-46.736h-1.249l30.472,51.686l-33.304,56.489c-0.151,0.257-0.066,0.586,0.19,0.737c0.086,0.051,0.18,0.075,0.273,0.075
					c0.184,0,0.364-0.095,0.464-0.265l33.002-55.977l33.002,55.977c0.1,0.17,0.28,0.265,0.464,0.265
					c0.094,0,0.187-0.024,0.273-0.075c0.256-0.151,0.342-0.48,0.19-0.737L686.111,318.474z M677.116,292.813l8.37-19.535
					l8.371,19.535l-8.371,24.027L677.116,292.813z"/>
				<ellipse style="fill:#FD5D3D;" cx="685.453" cy="262.608" rx="34.547" ry="10.529"/>
			</g>
			<g>
				<g>
					<g>
						<g>
							<polygon style="fill:#B7CBE2;" points="692.511,267.556 657.058,265.758 680.363,254.79 704.786,256.066 							"/>
							<polygon style="fill:#A7BBCE;" points="690.204,266.286 661.808,264.845 680.474,256.06 700.036,257.083 							"/>
						</g>
						<polygon style="fill:#332E2E;" points="657.058,265.758 692.511,267.556 657.058,266.788 						"/>
					</g>
					<g>
						<polygon style="fill:#C9DAF2;" points="692.511,267.556 698.289,239.818 718.145,228.541 709.422,255.514 						"/>
						<polygon style="fill:#332E2E;" points="718.145,228.541 698.289,239.818 697.506,239.818 717.588,228.541 						"/>
						<polygon style="fill:#332E2E;" points="698.289,239.818 692.511,267.556 691.486,267.556 697.506,239.818 						"/>
					</g>
				</g>
				<g>
					<g>
						<path style="fill:#F4BBB3;" d="M688.306,257.527l-1.257-1.985l0.794-0.463l-2.646-5.689l-7.742-10.759l-6.329-34.61
							c0,0-1.384-24.524-2.373-32.88c-0.989-8.357-5.988-10.561-5.988-10.561l-3.788,21.078c0,0,0.283,14.453,1.272,21.375
							c0.989,6.922,11.075,36.785,11.075,36.785l-0.681,6.198l2.117,7.608l2.712,3.109l0.926-0.86l-1.654-3.771l-0.331-5.094
							l5.094,4.763l3.833,7.078h0.93l0.794,1.852h0.992l-1.588-6.285l2.778,3.837L688.306,257.527z"/>
						<g>
							<g>
								<path style="fill:#332E2E;" d="M686.057,260.842h-0.993c-0.055,0-0.106-0.034-0.128-0.085l-0.756-1.768h-0.84
									c-0.051,0-0.098-0.028-0.123-0.073l-3.822-7.059l-4.82-4.508l0.305,4.72l1.645,3.749c0.024,0.053,0.011,0.117-0.033,0.157
									l-0.927,0.86c-0.027,0.026-0.048,0.035-0.102,0.037c-0.037-0.002-0.073-0.02-0.096-0.048l-2.712-3.11
									c-0.014-0.015-0.024-0.034-0.029-0.054l-1.372-4.925c-0.021-0.074,0.023-0.151,0.096-0.171
									c0.072-0.021,0.151,0.023,0.17,0.097l1.364,4.895l2.597,2.978l0.749-0.696l-1.615-3.68
									c-0.007-0.015-0.011-0.031-0.012-0.047l-0.33-5.094c-0.003-0.057,0.028-0.111,0.079-0.135
									c0.051-0.026,0.113-0.015,0.154,0.024l5.093,4.763c0.012,0.01,0.021,0.022,0.028,0.035l3.792,7.006h0.849
									c0.055,0,0.105,0.034,0.128,0.085l0.756,1.768h0.724l-1.545-6.112c-0.016-0.064,0.015-0.131,0.076-0.16
									c0.059-0.027,0.132-0.009,0.171,0.044l2.699,3.727l0.837-0.576l-1.185-1.872c-0.021-0.031-0.027-0.071-0.017-0.106
									c0.009-0.037,0.031-0.068,0.065-0.088l0.685-0.399l-2.593-5.574l-3.949-5.482c-0.044-0.062-0.03-0.149,0.031-0.194
									c0.063-0.044,0.149-0.031,0.194,0.031l3.962,5.505l2.659,5.711c0.03,0.065,0.007,0.142-0.056,0.179l-0.669,0.391l1.18,1.863
									c0.04,0.063,0.023,0.145-0.038,0.188l-1.058,0.728c-0.065,0.045-0.149,0.028-0.192-0.033l-2.354-3.251l1.411,5.584
									c0.011,0.041,0.001,0.085-0.025,0.119C686.141,260.822,686.099,260.842,686.057,260.842z"/>
							</g>
							<g>
								<path style="fill:#332E2E;" d="M684.271,258.99c-0.059,0-0.114-0.038-0.132-0.097l-1.984-6.246
									c-0.023-0.073,0.017-0.151,0.09-0.175c0.073-0.021,0.152,0.017,0.175,0.091l1.984,6.245c0.023,0.074-0.017,0.152-0.09,0.175
									C684.299,258.987,684.285,258.99,684.271,258.99z"/>
							</g>
							<g>
								<path style="fill:#332E2E;" d="M687.049,255.681c-0.05,0-0.098-0.027-0.123-0.074l-3.125-5.875
									c-0.036-0.068-0.011-0.152,0.057-0.188c0.068-0.035,0.152-0.01,0.188,0.058l3.125,5.875
									c0.036,0.067,0.011,0.152-0.057,0.188C687.093,255.676,687.071,255.681,687.049,255.681z"/>
							</g>
							<g>
								<path style="fill:#332E2E;" d="M684.469,254.557c-0.051,0-0.101-0.028-0.125-0.078l-3.107-6.37
									c-0.034-0.069-0.005-0.152,0.064-0.186c0.07-0.033,0.153-0.005,0.186,0.064l3.107,6.369
									c0.034,0.068,0.005,0.152-0.064,0.186C684.51,254.553,684.489,254.557,684.469,254.557z"/>
							</g>
							<g>
								<path style="fill:#332E2E;" d="M682.287,252.744c-0.046,0-0.091-0.023-0.117-0.064l-3.344-5.271
									c-0.041-0.064-0.022-0.15,0.042-0.191c0.066-0.04,0.151-0.023,0.192,0.043l3.344,5.271c0.041,0.065,0.022,0.15-0.042,0.191
									C682.339,252.737,682.313,252.744,682.287,252.744z"/>
							</g>
						</g>
					</g>
					<path style="opacity:0.27;fill:#332E2E;" d="M650.578,156.963c0,0-4.306,14.775-1.526,25.756
						c2.78,10.981,10.253,24.626,22.317,22.632l-1.542-30.077c0,0,0.849-14.086-10.567-16.653L650.578,156.963z"/>
				</g>
			</g>
		</g>
	</g>
</g>
</svg>
