<?xml version="1.0" encoding="utf-8"?>
<!-- Generator: Adobe Illustrator 27.5.0, SVG Export Plug-In . SVG Version: 6.00 Build 0)  -->
<svg version="1.1" xmlns="http://www.w3.org/2000/svg" xmlns:xlink="http://www.w3.org/1999/xlink" x="0px" y="0px"
	 viewBox="0 0 500 500" style="enable-background:new 0 0 500 500;" xml:space="preserve">
<g id="BACKGROUND">
	
		<rect x="0.238" y="0.063" transform="matrix(-1 -1.224647e-16 1.224647e-16 -1 500.4768 500.125)" style="fill:#FFFFFF;" width="500" height="500"/>
</g>
<g id="OBJECTS">
	<g style="opacity:0.57;">
		<path style="fill:#BFDBF2;" d="M422.835,419.1c21.539-32.567,34.081-71.606,34.081-113.574
			c0-113.852-92.295-206.147-206.146-206.147S44.623,191.674,44.623,305.526c0,42.795,13.04,82.544,35.364,115.491L422.835,419.1z"
			/>
	</g>
	<g style="opacity:0.88;">
		<g>
			<path style="fill:#B7D4E5;" d="M81.401,145.751c0,0,11.496-0.61,11.86-14.819c0,0,2.575,14.411,11.133,14.209
				c0,0-11.886,5.098-11.496,16.17C92.897,161.311,95.059,147.102,81.401,145.751z"/>
			<path style="fill:#B7D4E5;" d="M104.394,198.653c0,0,8.036-0.426,8.29-10.359c0,0,1.8,10.074,7.782,9.933
				c0,0-8.309,3.563-8.036,11.303C112.43,209.53,113.941,199.598,104.394,198.653z"/>
			<path style="fill:#B7D4E5;" d="M214.21,100.591c0,0,7.494-0.398,7.73-9.659c0,0,1.678,9.394,7.257,9.262
				c0,0-7.494,0.639-7.494,10.54C221.704,110.733,223.113,101.472,214.21,100.591z"/>
			<path style="fill:#B7D4E5;" d="M256.142,53.108c0,0,6.913-0.367,7.131-8.911c0,0-0.219,7.782,6.694,8.544
				c0,0-7.147,3.065-6.913,9.723C263.054,62.465,264.354,53.921,256.142,53.108z"/>
			<path style="fill:#B7D4E5;" d="M55.54,80.034c0,0,6.913-0.367,7.131-8.911c0,0,1.548,8.665,6.694,8.544
				c0,0-7.147,3.065-6.913,9.723C62.453,89.39,63.752,80.846,55.54,80.034z"/>
			<path style="fill:#B7D4E5;" d="M450.803,80.034c0,0,6.913-0.367,7.131-8.911c0,0,1.548,8.665,6.694,8.544
				c0,0-7.584,1.313-6.913,9.723C457.716,89.39,459.016,80.846,450.803,80.034z"/>
			<path style="fill:#B7D4E5;" d="M411.199,71.883c0,0-15.515-0.823-16.005-19.999c0,0-3.475,19.448-15.024,19.176
				c0,0,16.04,6.879,15.515,21.821C395.684,92.881,393.476,70.356,411.199,71.883z"/>
			<path style="fill:#B7D4E5;" d="M458.84,183.012c0,0-8.036-0.426-8.29-10.359c0,0-1.8,10.074-7.782,9.932
				c0,0,8.309,3.563,8.036,11.303C450.803,193.889,449.293,183.957,458.84,183.012z"/>
			<path style="fill:#B7D4E5;" d="M164.11,62.223c0,0-7.494-0.397-7.73-9.659c0,0-1.678,9.393-7.257,9.262
				c0,0,7.748,3.323,7.494,10.54C156.617,72.365,155.208,63.104,164.11,62.223z"/>
		</g>
	</g>
	<g>
		<rect x="126.769" y="87.574" style="fill:#141413;" width="92.231" height="24.953"/>
		<g>
			<g>
				<polygon style="fill:#2068AA;" points="50.721,410.341 60.02,419.76 281.512,419.76 281.512,102.019 269.649,95.818 
					50.364,95.818 				"/>
				
					<rect x="60.474" y="102.019" transform="matrix(-1 -1.224647e-16 1.224647e-16 -1 342.3305 521.7793)" style="fill:#3A88B8;" width="221.382" height="317.741"/>
				<g>
					<g>
						<g>
							
								<rect x="25.131" y="159.856" transform="matrix(0.0037 -1 1 0.0037 -90.4608 431.2116)" style="fill:#F7F9F8;" width="292.068" height="202.291"/>
						</g>
					</g>
					<g>
						<path style="opacity:0.78;fill:none;stroke:#E86B2D;stroke-width:1.907;stroke-miterlimit:10;" d="M93.62,371.538h129.851
							c4.545,0,8.263,3.769,8.263,8.376l0,0c0,4.607-3.718,8.376-8.263,8.376H93.62c-4.545,0-8.263-3.769-8.263-8.376l0,0
							C85.357,375.307,89.076,371.538,93.62,371.538z"/>
						<path style="opacity:0.78;fill:none;stroke:#E86B2D;stroke-width:1.907;stroke-miterlimit:10;" d="M93.62,346.179h129.851
							c4.545,0,8.263,3.769,8.263,8.376l0,0c0,4.607-3.718,8.376-8.263,8.376H93.62c-4.545,0-8.263-3.769-8.263-8.376l0,0
							C85.357,349.948,89.076,346.179,93.62,346.179z"/>
						<path style="opacity:0.78;fill:none;stroke:#E86B2D;stroke-width:1.907;stroke-miterlimit:10;" d="M93.62,320.819h129.851
							c4.545,0,8.263,3.769,8.263,8.376l0,0c0,4.607-3.718,8.376-8.263,8.376H93.62c-4.545,0-8.263-3.769-8.263-8.376l0,0
							C85.357,324.589,89.076,320.819,93.62,320.819z"/>
						<path style="opacity:0.78;fill:none;stroke:#E86B2D;stroke-width:1.907;stroke-miterlimit:10;" d="M93.62,295.46h129.851
							c4.545,0,8.263,3.769,8.263,8.376l0,0c0,4.607-3.718,8.376-8.263,8.376H93.62c-4.545,0-8.263-3.769-8.263-8.376l0,0
							C85.357,299.229,89.076,295.46,93.62,295.46z"/>
						<path style="opacity:0.78;fill:none;stroke:#E86B2D;stroke-width:1.907;stroke-miterlimit:10;" d="M93.62,270.101h129.851
							c4.545,0,8.263,3.769,8.263,8.376l0,0c0,4.607-3.718,8.376-8.263,8.376H93.62c-4.545,0-8.263-3.769-8.263-8.376l0,0
							C85.357,273.87,89.076,270.101,93.62,270.101z"/>
						<path style="opacity:0.78;fill:none;stroke:#E86B2D;stroke-width:1.907;stroke-miterlimit:10;" d="M93.62,244.742h129.851
							c4.545,0,8.263,3.769,8.263,8.376l0,0c0,4.607-3.718,8.376-8.263,8.376H93.62c-4.545,0-8.263-3.769-8.263-8.376l0,0
							C85.357,248.511,89.076,244.742,93.62,244.742z"/>
						<path style="opacity:0.78;fill:none;stroke:#E86B2D;stroke-width:1.907;stroke-miterlimit:10;" d="M93.62,219.382h129.851
							c4.545,0,8.263,3.769,8.263,8.376l0,0c0,4.607-3.718,8.376-8.263,8.376H93.62c-4.545,0-8.263-3.769-8.263-8.376l0,0
							C85.357,223.152,89.076,219.382,93.62,219.382z"/>
						<path style="opacity:0.78;fill:none;stroke:#E86B2D;stroke-width:1.907;stroke-miterlimit:10;" d="M93.62,194.023h129.851
							c4.545,0,8.263,3.769,8.263,8.376l0,0c0,4.607-3.718,8.376-8.263,8.376H93.62c-4.545,0-8.263-3.769-8.263-8.376l0,0
							C85.357,197.792,89.076,194.023,93.62,194.023z"/>
						<path style="opacity:0.78;fill:none;stroke:#E86B2D;stroke-width:1.907;stroke-miterlimit:10;" d="M93.62,168.664h129.851
							c4.545,0,8.263,3.769,8.263,8.376l0,0c0,4.607-3.718,8.376-8.263,8.376H93.62c-4.545,0-8.263-3.769-8.263-8.376l0,0
							C85.357,172.433,89.076,168.664,93.62,168.664z"/>
						<path style="opacity:0.78;fill:none;stroke:#E86B2D;stroke-width:1.907;stroke-miterlimit:10;" d="M93.62,143.304h129.851
							c4.545,0,8.263,3.769,8.263,8.376l0,0c0,4.607-3.718,8.376-8.263,8.376H93.62c-4.545,0-8.263-3.769-8.263-8.376l0,0
							C85.357,147.074,89.076,143.304,93.62,143.304z"/>
						<g>
							<path style="fill:none;stroke:#E86B2D;stroke-width:1.9004;stroke-miterlimit:10;" d="M252.13,371.653h-8.596
								c-1.393,0-2.533,1.14-2.533,2.533v11.572c0,1.393,1.14,2.533,2.533,2.533h8.596c1.393,0,2.533-1.14,2.533-2.533v-11.572
								C254.663,372.793,253.523,371.653,252.13,371.653z"/>
							<path style="opacity:0.78;fill:none;stroke:#E86B2D;stroke-width:1.9004;stroke-miterlimit:10;" d="M252.13,346.467h-8.596
								c-1.393,0-2.533,1.14-2.533,2.533v11.572c0,1.393,1.14,2.533,2.533,2.533h8.596c1.393,0,2.533-1.14,2.533-2.533V349
								C254.663,347.607,253.523,346.467,252.13,346.467z"/>
							<path style="opacity:0.78;fill:none;stroke:#E86B2D;stroke-width:1.9004;stroke-miterlimit:10;" d="M252.13,321.282h-8.596
								c-1.393,0-2.533,1.14-2.533,2.533v11.572c0,1.393,1.14,2.533,2.533,2.533h8.596c1.393,0,2.533-1.14,2.533-2.533v-11.572
								C254.663,322.422,253.523,321.282,252.13,321.282z"/>
							<path style="opacity:0.78;fill:none;stroke:#E86B2D;stroke-width:1.9004;stroke-miterlimit:10;" d="M252.13,296.096h-8.596
								c-1.393,0-2.533,1.14-2.533,2.533v11.572c0,1.393,1.14,2.533,2.533,2.533h8.596c1.393,0,2.533-1.14,2.533-2.533v-11.572
								C254.663,297.236,253.523,296.096,252.13,296.096z"/>
							<path style="opacity:0.78;fill:none;stroke:#E86B2D;stroke-width:1.9004;stroke-miterlimit:10;" d="M252.13,270.911h-8.596
								c-1.393,0-2.533,1.14-2.533,2.533v11.572c0,1.393,1.14,2.533,2.533,2.533h8.596c1.393,0,2.533-1.14,2.533-2.533v-11.572
								C254.663,272.051,253.523,270.911,252.13,270.911z"/>
							<path style="opacity:0.78;fill:none;stroke:#E86B2D;stroke-width:1.9004;stroke-miterlimit:10;" d="M252.13,245.725h-8.596
								c-1.393,0-2.533,1.14-2.533,2.533v11.572c0,1.393,1.14,2.533,2.533,2.533h8.596c1.393,0,2.533-1.14,2.533-2.533v-11.572
								C254.663,246.865,253.523,245.725,252.13,245.725z"/>
							<path style="opacity:0.78;fill:none;stroke:#E86B2D;stroke-width:1.9004;stroke-miterlimit:10;" d="M252.13,220.54h-8.596
								c-1.393,0-2.533,1.14-2.533,2.533v11.571c0,1.393,1.14,2.533,2.533,2.533h8.596c1.393,0,2.533-1.14,2.533-2.533v-11.572
								C254.663,221.679,253.523,220.54,252.13,220.54z"/>
							<path style="opacity:0.78;fill:none;stroke:#E86B2D;stroke-width:1.9004;stroke-miterlimit:10;" d="M252.13,195.354h-8.596
								c-1.393,0-2.533,1.14-2.533,2.533v11.572c0,1.393,1.14,2.533,2.533,2.533h8.596c1.393,0,2.533-1.14,2.533-2.533v-11.572
								C254.663,196.494,253.523,195.354,252.13,195.354z"/>
							<path style="opacity:0.78;fill:none;stroke:#E86B2D;stroke-width:1.9004;stroke-miterlimit:10;" d="M252.13,168.49h-8.596
								c-1.393,0-2.533,1.14-2.533,2.533v11.572c0,1.393,1.14,2.533,2.533,2.533h8.596c1.393,0,2.533-1.14,2.533-2.533v-11.572
								C254.663,169.63,253.523,168.49,252.13,168.49z"/>
							<path style="opacity:0.78;fill:none;stroke:#E86B2D;stroke-width:1.9004;stroke-miterlimit:10;" d="M252.13,143.304h-8.596
								c-1.393,0-2.533,1.14-2.533,2.533v11.572c0,1.393,1.14,2.533,2.533,2.533h8.596c1.393,0,2.533-1.14,2.533-2.533v-11.572
								C254.663,144.444,253.523,143.304,252.13,143.304z"/>
						</g>
					</g>
					<polyline style="fill:#E5482E;stroke:#E5482E;stroke-width:0.1834;stroke-miterlimit:10;" points="240.638,149.079 
						244.307,146.548 247.158,150.354 262.75,140.107 265.677,143.836 245.866,156.963 240.638,149.079 					"/>
					<polyline style="fill:#E5482E;stroke:#E5482E;stroke-width:0.1834;stroke-miterlimit:10;" points="240.638,279.021 
						244.307,276.49 247.158,280.296 262.75,270.049 265.677,273.778 245.866,286.905 240.638,279.021 					"/>
					<polyline style="fill:#E5482E;stroke:#E5482E;stroke-width:0.1834;stroke-miterlimit:10;" points="240.638,353.015 
						244.307,350.484 247.158,354.29 262.75,344.043 265.677,347.772 245.866,360.899 240.638,353.015 					"/>
				</g>
				<path style="fill:#0A3454;" d="M119.801,84.952l-2.563,2.563v33.982h108.731l2.563-2.563l-2.563-31.419h-27.507l-6.427-9.199
					c-1.945-2.783-5.925-4.542-10.279-4.542h-23.886c-4.599,0-8.231,0.888-10.039,3.909l-4.789,7.269H119.801z"/>
				<path style="fill:#3B5D76;" d="M225.968,121.369v0.129H117.238V93.945c0-3.19,3.092-5.466,6.138-4.518L225.968,121.369z"/>
			</g>
		</g>
	</g>
	<g>
		<path style="fill:#321F10;" d="M418.599,96.867c0,0,3.665,8.637-14.19,24.932c-5.12,4.673-15.278,34.473-8.439,44.1
			c6.631,9.333-7.036,21.542-15.692,22.768c-11.152,1.579-14.689-0.883-14.689-0.883c0.77,1.322,3.805-2.378,4.019-2.68
			c1.998-2.816,2.764-6.611,3.2-9.96c1.406-10.791-5.509-19.817-5.576-30.281c-0.064-9.959,1.848-19.765,4.612-29.282
			c1.294-4.456,2.71-8.934,5.291-12.841C385.618,89.896,403.427,90.618,418.599,96.867z"/>
		<g>
			<path style="fill:#321F10;" d="M382.172,101.517c-3.516-0.543-7.279,1.298-9.007,4.408c-1.728,3.11-1.305,7.277,1.013,9.977
				c-3.541-1.839-8.109,1.214-9.078,5.085c-0.969,3.871,0.676,7.925,2.826,11.287c-3.235,1.043-4.821,5.032-4.072,8.348
				c0.749,3.316,3.271,5.962,6.049,7.921c-2.997,1.775-4.815,5.365-4.472,8.831s2.829,6.63,6.116,7.784
				c-5.363,2.413-6.158,11.131-1.32,14.474c-3.049-0.934-6.658,1.367-7.098,4.525c-0.44,3.158,2.402,6.358,5.59,6.294
				c2.745-0.056,5.083-2.161,6.38-4.581c1.297-2.42,1.8-5.172,2.598-7.799c2.186-7.2,6.6-15.222,2.617-21.607
				c-1.243-1.993-3.319-4.022-2.605-6.26c0.363-1.137,1.376-1.916,2.223-2.758c4.135-4.111,4.625-11.349,1.083-15.979
				c5.167-1.839,7.157-9.373,3.573-13.524c3.77-2.28,6.89-6.399,6.317-10.767c-0.573-4.368-6.291-7.66-9.706-4.877"/>
			<g>
				<path style="fill:#321F10;" d="M382.177,101.073c-8.644-1.204-13.751,8.688-8.592,15.394c0.338-0.422,0.676-0.843,1.013-1.265
					c-3.599-1.592-7.516,0.194-9.471,3.496c-2.654,4.482-0.472,9.994,1.995,14.016c0.194-0.442,0.388-0.885,0.582-1.328
					c-3.274,1.262-5.122,4.467-4.964,7.956c0.194,4.297,3.403,7.617,6.677,10.007c0.011-0.545,0.022-1.089,0.033-1.634
					c-7.238,4.696-6.15,15.173,1.844,18.347c-0.066-0.576-0.132-1.153-0.199-1.729c-6.059,3.038-6.681,12.078-1.349,16.096
					c0.243-0.565,0.486-1.13,0.73-1.695c-4.842-1.132-9.862,3.424-7.845,8.396c2.282,5.623,8.917,4.994,12.213,0.79
					c2.167-2.764,2.75-6.325,3.74-9.603c1.126-3.728,2.729-7.31,3.623-11.109c0.712-3.026,0.99-6.257-0.131-9.22
					c-0.527-1.394-1.366-2.553-2.198-3.777c-0.451-0.664-1.094-1.473-1.26-2.269c-0.366-1.758,0.892-2.733,1.951-3.826
					c4.423-4.568,4.956-11.931,1.257-17.094c-0.122,0.419-0.245,0.838-0.368,1.257c5.816-2.346,7.629-10.15,3.802-14.976
					c-0.076,0.485-0.151,0.97-0.227,1.456c4.219-2.691,8.362-7.881,6.411-13.19c-1.507-4.101-6.872-6.818-10.694-4.089
					c-0.97,0.692-0.079,2.339,0.898,1.641c3.084-2.204,7.41,0.236,8.243,3.693c1.027,4.264-2.449,8.208-5.749,10.315
					c-0.539,0.344-0.616,0.966-0.227,1.456c3.159,3.98,1.26,10.213-3.345,12.071c-0.426,0.172-0.635,0.883-0.368,1.257
					c1.915,2.673,2.662,5.906,2.035,9.153c-0.281,1.456-0.818,2.844-1.631,4.087c-0.825,1.261-2.025,2.077-2.916,3.26
					c-1.52,2.018-1.111,4.043,0.154,6.076c1.928,3.099,3.432,5.485,3.085,9.32c-0.315,3.482-1.638,6.826-2.797,10.093
					c-1.106,3.117-1.811,6.364-2.939,9.466c-1.305,3.592-5.459,8.538-9.483,4.992c-3.764-3.318-0.33-8.909,4.266-7.829
					c1.068,0.251,1.55-1.075,0.73-1.695c-4.263-3.219-3.391-10.51,1.292-12.852c0.803-0.401,0.508-1.448-0.198-1.729
					c-6.419-2.556-7.222-11.132-1.444-14.883c0.629-0.409,0.629-1.199,0.033-1.634c-2.623-1.914-5.232-4.483-5.695-7.855
					c-0.392-2.858,0.932-5.72,3.672-6.802c0.443-0.175,0.601-0.862,0.364-1.243c-1.92-3.074-3.774-6.892-2.794-10.614
					c0.85-3.232,4.456-6.073,7.822-4.617c0.835,0.361,1.619-0.508,1.013-1.265c-4.738-5.924,0.046-13.961,7.397-13.377
					C382.748,102.008,382.729,101.149,382.177,101.073L382.177,101.073z"/>
			</g>
		</g>
		<path style="fill:#6E4A2C;" d="M409.973,134.013c-0.124,0.34-5.929,22.748-5.929,22.748s-6.112,4.074-9.734,3.395
			c-3.622-0.679-3.06-5.546-3.06-5.546l2.706-15.585L409.973,134.013z"/>
		<path style="fill:#2068AA;" d="M381.27,159.455c-7,1.14-28.772,28.585-25.855,48.129c0.215,1.443,1.956,2.041,3.053,1.081
			C368.374,199.999,390.884,157.889,381.27,159.455z"/>
		<path style="fill:#2068AA;" d="M409.223,232.135c-11.326-14.213-7.415-13.9-5.58-19.211c1.836-5.312,9.203-31.905,10.768-34.812
			c1.144-2.124,2.247-8.436,2.514-12.405c0.119-1.775-0.984-3.4-2.674-3.955c-4.445-1.457-8.594-2.59-8.76-2.309l-14.266-2.272
			l-6.95,2.142l-2.602-0.026c0,0-9.156,23.147-10.913,27.547c-1.757,4.401,2.266,9.04,2.706,11.871c0.44,2.83,0.462,26.947,0,28.285
			c-0.462,1.339-4.647,17.163-4.647,17.163s6.22,5.529,20.275,5.529c11.575,0,28.137-3.968,28.137-3.968
			S417.23,242.182,409.223,232.135z"/>
		<path style="fill:#2068AA;" d="M354.211,208.057c-4.589-3.145-12.783-12.868-17.896-42.88c-0.104-0.611,0.2-1.224,0.751-1.51l0,0
			c0.674-0.35,1.504-0.111,1.888,0.545c1.292,2.209,4.225,7.175,7.078,11.682c6.638,10.488,13.214,22.747,12.87,29.826
			C358.788,208.054,356.138,209.378,354.211,208.057z"/>
		<polygon style="fill:#DBDBDB;" points="390.226,157.172 390.743,153.57 395.703,157.866 405.726,153.57 404.275,159.305 
			395.703,162.131 		"/>
		<polygon style="fill:#FFFFFF;" points="405.726,153.57 408.397,159.305 401.214,162.75 397.698,157.01 		"/>
		<polygon style="fill:#FFFFFF;" points="394.628,156.934 390.738,162.131 387.228,158.641 389.584,152.493 		"/>
		<path style="fill:#2068AA;" d="M412.519,163.333c-5.284,12.527,5.285,40.878,22.715,49.813c1.436,0.736,3.129-0.43,2.959-2.034
			C436.747,197.499,416.274,154.428,412.519,163.333z"/>
		<path style="fill:#9D592F;" d="M431.375,254.921c-0.349-0.006-0.671,0.181-0.839,0.488c-0.755,1.383-2.838,5.211-3.06,5.747
			c-0.191,0.46-2.205,2.614-3.391,3.859c-0.481,0.505-0.271,1.364,0.403,1.546c0.562,0.151,1.196,0.114,1.644-0.523
			c0.994-1.414,2.75-3.588,4.811-2.535c5.61,2.867,3.594,9.76,5.801,10.393c0.01,0.003,0.02,0.006,0.03,0.008
			c0.679,0.184,1.285-0.489,1.083-1.163c-0.068-0.225-0.144-0.492-0.221-0.788c-0.039-0.151-0.035-0.312,0.001-0.464
			c0.243-1.038,0.331-2.905-0.396-4.902c-0.044-0.121-0.063-0.253-0.053-0.382c0.147-1.909-0.249-3.593-0.708-4.632
			c-0.399-0.901-3.221-4.962-4.12-6.249c-0.173-0.247-0.453-0.395-0.754-0.4L431.375,254.921z"/>
		<path style="fill:#9D592F;" d="M338.464,166.441c0.335-0.097,0.588-0.371,0.658-0.713c0.315-1.544,1.18-5.815,1.235-6.393
			c0.048-0.496,1.339-3.146,2.106-4.685c0.311-0.625-0.143-1.383-0.84-1.359c-0.582,0.021-1.177,0.243-1.417,0.983
			c-0.534,1.644-1.573,4.238-3.853,3.838c-6.205-1.09-6.305-8.271-8.601-8.228c-0.01,0-0.021,0-0.031,0.001
			c-0.703,0.023-1.084,0.845-0.693,1.43c0.131,0.195,0.282,0.428,0.443,0.688c0.082,0.133,0.125,0.288,0.135,0.444
			c0.073,1.064,0.538,2.874,1.821,4.569c0.078,0.103,0.134,0.224,0.163,0.35c0.421,1.867,1.294,3.361,2.039,4.219
			c0.646,0.744,4.538,3.796,5.776,4.761c0.238,0.185,0.549,0.244,0.838,0.16L338.464,166.441z"/>
		<path style="fill:#2068AA;" d="M438.24,210.116c2.508,4.59,5.429,16.96-5.598,46.841c-0.181,0.491-0.662,0.812-1.184,0.79l0,0
			c-0.85-0.037-1.522-0.728-1.529-1.578c-0.022-2.633-0.092-8.275-0.316-13.497c-0.55-12.828-0.096-27.267,4.108-32.861
			C434.903,208.237,437.296,208.389,438.24,210.116z"/>
		<path style="fill:#321F10;" d="M404.93,85.319c0,0,32.398-1.419,25.903,32.344c0,0,0.716,49.62-9.399,67.338
			c-6.358,11.139-18.821-15.64-18.821-15.64L404.93,85.319z"/>
		<g>
			<path style="fill:#321F10;" d="M429.524,109.889c3.586,1.145,3.862,7.234,0.394,8.698c3.324,1.502,4.522,6.357,2.278,9.233
				c4.411,3.369,5.597,10.274,2.563,14.921c4.324,2.318,6.249,8.262,4.104,12.674c2.913,4.225,4.385,9.424,4.12,14.549
				c-0.073,1.416-0.317,2.92-1.269,3.972c-0.952,1.051-2.821,1.364-3.752,0.294c0.961,3.067,0.965,6.537-0.545,9.374
				c-1.51,2.837-4.703,4.857-7.892,4.465c-3.19-0.392-5.935-3.556-5.401-6.725c0.763,2.403-1.939,4.372-4.217,5.452
				c-2.18,1.034-5.395,1.758-6.49-0.392c-0.41-0.804-0.325-1.757-0.431-2.652c-0.349-2.961-2.757-5.226-3.886-7.985
				c-2.586-6.319,1.92-13.133,6.177-18.472c-3.994-2.623-6.177-7.745-5.304-12.443c0.873-4.698,4.751-8.693,9.421-9.706
				c-3.607-3.066-5.2-8.305-3.91-12.86c1.29-4.554,5.394-8.18,10.073-8.899"/>
			<g>
				<path style="fill:#321F10;" d="M429.302,110.259c3.177,1.398,3.267,6.056,0.202,7.573c-0.573,0.283-0.595,1.189-0.03,1.494
					c2.915,1.572,3.812,5.294,1.902,8.002c-0.218,0.309-0.174,0.9,0.127,1.153c4.044,3.387,5.173,9.194,2.407,13.751
					c-0.276,0.454-0.122,1.088,0.339,1.359c2.303,1.353,3.83,3.549,4.33,6.18c0.245,1.286,0.213,2.622-0.134,3.886
					c-0.252,0.914-0.658,1.364-0.465,2.242c0.253,1.154,1.591,2.588,2.098,3.718c0.666,1.482,1.178,3.038,1.504,4.631
					c0.356,1.737,0.517,3.506,0.457,5.278c-0.046,1.387-0.913,6.117-3.396,4.056c-0.661-0.549-1.878-0.118-1.594,0.876
					c1.163,4.064,0.843,9.079-3.069,11.599c-3.821,2.461-9.45,0.351-8.971-4.702c-0.582,0.068-1.164,0.136-1.746,0.204
					c0.656,3.352-7.693,7.614-9.219,4.006c-0.518-1.224-0.261-2.824-0.798-4.134c-0.551-1.345-1.383-2.535-2.136-3.771
					c-4.356-7.149,0.413-14.188,4.929-19.905c0.313-0.396,0.047-0.973-0.304-1.22c-8.13-5.72-5.708-18.122,3.874-20.523
					c0.612-0.153,0.936-1.017,0.429-1.476c-7.316-6.621-3.978-18.481,5.734-20.283c1.128-0.209,0.692-1.934-0.43-1.726
					c-10.972,2.036-14.874,15.741-6.592,23.235c0.143-0.492,0.286-0.984,0.429-1.476c-11.142,2.792-13.705,17.198-4.36,23.773
					c-0.101-0.407-0.203-0.813-0.304-1.22c-3.103,3.929-6.38,8.411-6.97,13.538c-0.244,2.122,0.057,4.209,0.93,6.158
					c1.116,2.494,3.172,4.525,3.606,7.297c0.242,1.549,0.164,3.168,1.593,4.174c1.339,0.943,3.181,0.735,4.665,0.318
					c3.197-0.898,7.384-3.357,6.645-7.194c-0.201-1.046-1.654-0.743-1.746,0.204c-0.534,5.464,5.232,9.011,10.092,7.087
					c5.81-2.3,7.082-8.965,5.545-14.417c-0.531,0.292-1.063,0.584-1.594,0.876c2.347,1.963,5.278,0.486,6.201-2.203
					c1.367-3.986,0.235-9.194-1.236-12.99c-0.602-1.552-2.16-3.407-2.048-4.884c0.12-1.576,0.655-2.919,0.47-4.574
					c-0.389-3.488-2.373-6.57-5.398-8.338c0.113,0.453,0.226,0.906,0.339,1.359c3.138-5.199,2.07-12.255-2.719-16.091
					c0.042,0.384,0.085,0.768,0.127,1.153c2.373-3.525,1.152-8.518-2.655-10.464c-0.01,0.498-0.02,0.996-0.03,1.494
					c3.909-2.018,3.373-8.429-0.692-9.868C429.189,109.315,428.854,110.062,429.302,110.259L429.302,110.259z"/>
			</g>
		</g>
		<g>
			<path style="fill:#9D592F;" d="M402.064,154.703c-4.81,6.475-11.409,4.654-9.865-2.198l0.75-13.941l10.319-0.678l-0.024,13.283
				C403.241,152.443,402.824,153.68,402.064,154.703z"/>
			<path style="fill-rule:evenodd;clip-rule:evenodd;fill:#7F4224;" d="M392.463,150.462l10.834-11.1l-0.038-1.936l-11.047,0.216
				l0.195,9.962C392.425,148.515,392.463,150.462,392.463,150.462z"/>
			<path style="fill:#AD5A1E;" d="M391.974,140.179L391.974,140.179c-13.695-0.853-17.98-13.901-13.866-22.322
				c2.357-4.824,1.27-12.102,1.27-12.102c0.626-8.179,8.537-17.801,17.18-17.263l0,0c8.643,0.538,15.142,7.605,14.516,15.784
				C411.074,104.276,412.594,140.943,391.974,140.179z"/>
			<path style="fill:#9D592F;" d="M400.007,87.956c-4.552-0.284-8.79,1.187-11.939,3.772c-4.393,3.42-7.554,9.012-7.94,14.058
				c0,0,1.087,7.278-1.27,12.102c-4.114,8.421,0.17,21.469,13.866,22.322c1.302,0.048,2.515-0.054,3.646-0.285
				c8.489,0.148,15.611-4.646,18.424-13.431l6.124-23.536C421.543,94.802,408.932,88.512,400.007,87.956z"/>
			<path style="fill:#7F4224;" d="M411.662,111.318c-3.59-1.107-7.083-2.579-10.721-3.527c-4.621-1.204-9.575-1.479-14.334-1.68
				c-2.148-0.09-4.298-0.12-6.448-0.094c-0.019-0.148-0.031-0.232-0.031-0.232c0.625-8.179,8.537-17.801,17.18-17.263h0
				c8.643,0.538,15.142,7.605,14.516,15.784C411.825,104.307,411.945,107.188,411.662,111.318z"/>
			<path style="opacity:0.38;fill:#D38462;" d="M384.427,92.789c0,0-5.567,12.831-5.768,15.955
				C378.659,108.745,379.377,95.055,384.427,92.789z"/>
			<path d="M399.075,115.188c0.011,0.539,0.428,0.969,0.933,0.959c0.505-0.01,0.905-0.455,0.895-0.995
				c-0.011-0.54-0.428-0.969-0.933-0.959C399.465,114.202,399.065,114.648,399.075,115.188z"/>
			<path d="M381.818,113.642c0.01,0.54,0.428,0.969,0.933,0.959c0.505-0.01,0.905-0.455,0.895-0.995
				c-0.01-0.539-0.428-0.969-0.933-0.959C382.208,112.657,381.807,113.103,381.818,113.642z"/>
			<g>
				<path style="fill:none;" d="M424.521,113.409"/>
			</g>
			<g>
				<path style="fill:none;" d="M421.872,108.022"/>
			</g>
			<path style="fill:#3D170A;" d="M405.37,112.466c-0.885-0.989-2.007-1.647-3.177-1.758c-0.594-0.054-1.165,0.094-1.758,0.064
				c-0.609-0.064-1.224-0.023-1.978-0.197l-0.05-0.137c0.489-0.617,1.163-0.901,1.866-1.113c0.718-0.177,1.486,0.005,2.18,0.247
				c1.445,0.44,2.509,1.587,3.039,2.815L405.37,112.466z"/>
			<path style="fill:#3D170A;" d="M381.354,107.641c0.404-0.745,1.32-1.385,2.361-1.322c0.497,0.002,1.033,0.051,1.406,0.36
				c0.349,0.336,0.659,0.689,0.722,1.262l-0.09,0.105c-0.566,0.041-0.927-0.093-1.301-0.156c-0.348-0.088-0.589-0.349-0.909-0.478
				c-0.613-0.241-1.379-0.137-2.09,0.324L381.354,107.641z"/>
			<path style="fill:#321F10;" d="M418.613,116.175c0,0-1.822-2.184-4.322-6.431c-3.218-5.467-2.608-7.119-3.191-7.451
				c-0.428-0.244-1.142,6.554-1.596,6.307c-6.944-3.783-18.54-4.241-28.878-4.038c-1.939,0.038-2.86-6.498-2.807-7.58
				c0.637-12.911,15.239-14.855,25.126-13.697C411.872,84.327,429.579,87.797,418.613,116.175"/>
			<path style="fill:#412612;" d="M377.82,96.981c0.496-10.063,9.476-13.463,18.094-13.926c-1.315,0.705-2.607,1.45-3.867,2.244
				c-2.096,1.321-4.492,2.798-6.029,4.758c-1.662,2.12-2.679,4.626-3.07,7.291c-0.342,2.337-0.4,4.782-0.114,7.181
				c-0.741,0.007-1.477,0.017-2.207,0.032C378.688,104.599,377.767,98.063,377.82,96.981z"/>
			<g>
				<path style="fill:#9D592F;" d="M412.82,123.712c-1.269,2.003-1.007,4.147,0.586,4.788c1.593,0.641,3.913-0.462,5.182-2.465
					c1.269-2.003,1.007-4.147-0.586-4.788C416.409,120.605,414.089,121.709,412.82,123.712z"/>
				<path style="fill-rule:evenodd;clip-rule:evenodd;fill:#9D592F;" d="M414.768,122.956c0.275-0.46,0.616-0.836,1.305-0.973
					c0.689-0.136,1.696,0.142,1.731,1.827c0.035,1.685-1.311,3.165-2.35,2.982c-0.329-0.058-0.519-0.464-0.624-0.992
					c0.623-0.17,1-0.807,0.853-1.485c-0.109-0.508-0.483-0.905-0.939-1.057C414.757,123.07,414.768,122.956,414.768,122.956z"/>
				<g>
					<g>
						<path style="fill:#FFFFFF;" d="M414.744,129.615c1.674,0,1.677-2.601,0-2.601C413.07,127.014,413.068,129.615,414.744,129.615
							L414.744,129.615z"/>
					</g>
				</g>
			</g>
			<polygon style="fill:#683012;" points="390.965,112.486 386.076,122.157 389.701,122.749 			"/>
			<polygon style="fill:#AD5A1E;" points="390.965,112.486 386.076,122.157 388.064,122.482 			"/>
			<g>
				<path style="fill:#3B2314;" d="M391.286,127.995c-1.01,0.996-2.62,1.326-3.939,0.808c-1.32-0.518-2.275-1.856-2.337-3.272"/>
			</g>
			<path style="fill:#321F10;" d="M414.292,109.743c0,0,6.468,11.499,4.395,20.156c0,0,11.717-26.455,5.369-34.113
				C417.709,88.127,414.292,109.743,414.292,109.743z"/>
		</g>
		<g style="opacity:0.56;">
			<g>
				<path style="fill:#86491C;" d="M428.563,120.608c0.873,0.113,1.605,0.702,2.08,1.427c0.476,0.732,0.71,1.614,0.692,2.485
					c-0.015,0.871-0.285,1.743-0.79,2.456c-0.504,0.705-1.261,1.265-2.139,1.339c0.249-0.834,0.373-1.472,0.453-2.089
					c0.081-0.61,0.116-1.18,0.131-1.754c0.011-0.574,0-1.146-0.056-1.759C428.879,122.092,428.78,121.449,428.563,120.608z"/>
			</g>
			<g>
				<path style="fill:#86491C;" d="M429.796,133.975c0.756-0.08,1.45,0.275,1.956,0.778c0.507,0.511,0.835,1.186,0.952,1.892
					c0.119,0.706,0.024,1.451-0.292,2.098c-0.317,0.639-0.863,1.199-1.607,1.363c-0.047-0.751-0.12-1.269-0.197-1.752l-0.219-1.328
					l-0.216-1.33C430.092,135.213,429.993,134.699,429.796,133.975z"/>
			</g>
			<g>
				<path style="fill:#86491C;" d="M432.611,145.85c1.102-0.011,2.167,0.58,2.931,1.408c0.77,0.836,1.268,1.911,1.454,3.029
					c0.188,1.118,0.064,2.297-0.395,3.337c-0.455,1.032-1.274,1.936-2.323,2.278c0.342-1.035,0.494-1.904,0.541-2.759
					c0.048-0.848-0.008-1.665-0.137-2.473c-0.135-0.807-0.346-1.6-0.666-2.387C433.696,147.49,433.27,146.717,432.611,145.85z"/>
			</g>
			<g>
				<path style="fill:#86491C;" d="M436.871,158.114c1.22,0.733,2.154,1.92,2.73,3.255c0.598,1.333,0.845,2.839,0.719,4.32
					c-0.068,0.74-0.206,1.478-0.462,2.18c-0.252,0.763-0.703,1.481-1.263,2.025c-0.542,0.566-1.245,1.003-2.036,1.207
					c-0.406,0.076-0.833,0.089-1.222-0.028c-0.392-0.124-0.704-0.376-0.906-0.665c0.715,0.177,1.26-0.021,1.681-0.369
					c0.428-0.343,0.773-0.798,1.049-1.283c0.261-0.506,0.469-0.98,0.561-1.51c0.134-0.576,0.212-1.163,0.261-1.751
					c0.108-1.179,0.045-2.376-0.127-3.596C437.667,160.674,437.33,159.458,436.871,158.114z"/>
			</g>
			<g>
				<path style="fill:#86491C;" d="M369.633,137.021c-0.254,0.962-0.287,1.737-0.22,2.455c0.068,0.713,0.252,1.34,0.527,1.874
					c0.277,0.532,0.681,1.045,1.221,1.514c0.546,0.47,1.195,0.894,2.126,1.249c-0.799,0.629-1.951,0.716-2.96,0.397
					c-1.016-0.319-1.948-1.06-2.472-2.085c-0.527-1.023-0.589-2.211-0.259-3.223C367.921,138.195,368.66,137.308,369.633,137.021z"
					/>
			</g>
			<g>
				<path style="fill:#86491C;" d="M371.49,120.044c-0.742,0.896-1.181,1.753-1.457,2.616c-0.273,0.858-0.36,1.704-0.262,2.489
					c0.1,0.784,0.391,1.582,0.866,2.346c0.479,0.768,1.113,1.491,2.051,2.182c-1.153,0.278-2.435-0.138-3.402-0.925
					c-0.973-0.788-1.682-1.983-1.843-3.314c-0.166-1.331,0.228-2.661,0.978-3.663C369.166,120.777,370.306,120.06,371.49,120.044z"
					/>
			</g>
			<g>
				<path style="fill:#86491C;" d="M372.883,151.397c-0.043,0.785,0.063,1.301,0.184,1.775c0.121,0.467,0.266,0.884,0.421,1.301
					c0.16,0.416,0.324,0.824,0.539,1.256c0.22,0.436,0.478,0.895,1.025,1.462c-0.682,0.419-1.582,0.302-2.268-0.098
					c-0.697-0.402-1.22-1.059-1.493-1.797c-0.275-0.738-0.313-1.576-0.051-2.336C371.496,152.209,372.095,151.531,372.883,151.397z"
					/>
			</g>
			<g>
				<path style="fill:#86491C;" d="M421.529,97.526c1.328-0.042,2.654,0.571,3.673,1.486c1.025,0.921,1.772,2.145,2.174,3.465
					c0.403,1.319,0.461,2.753,0.121,4.089c-0.338,1.327-1.101,2.574-2.231,3.276c0.325-1.276,0.441-2.401,0.4-3.504
					c-0.039-1.097-0.228-2.155-0.535-3.179c-0.312-1.023-0.742-2.009-1.32-2.943C423.233,99.274,422.51,98.403,421.529,97.526z"/>
			</g>
		</g>
		<path style="fill:#9D592F;" d="M391.766,410.819c0,0-0.881-3.117-1.552-5.004c-0.671-1.887-0.768-2.094-0.768-2.094l-1.589-1.274
			c0,0-5.344,6.078-7.147,8.534c-1.804,2.456-5.727,4.848-5.727,4.848s-1.763,4.694,6.523,2.172
			c8.286-2.521,9.013-4.441,9.013-4.441L391.766,410.819z"/>
		<path style="fill:#2068AA;" d="M391.179,408.817c0,0,2.392,5.697,1.309,6.715c-0.809,0.759-3.354,1.117-4.706,1.37
			c-1.352,0.254-2.623,2.86-4.993,3.733c-2.371,0.873-10.735,1.12-12.31,1.129c-1.576,0.009-2.103-0.658-1.094-2.25
			c1.008-1.592,5.599-3.686,5.599-3.686s0.256,1.442,5.157,0.735c4.9-0.707,7.675-3.282,8.531-4.576
			C389.526,410.693,390.506,408.966,391.179,408.817z"/>
		<g>
			<path style="fill:#9D592F;" d="M399.991,236.331c6.193-0.346,13.489,6.128,14.623,26.401c0.864,15.44-4.263,48.768-8.781,65.97
				c-1.821,6.932-7.623,9.388-8.318-1.651c-0.075-1.199-6.199-52.201-6.091-73.908C391.49,239.859,395.958,236.557,399.991,236.331z
				"/>
		</g>
		<path style="fill:#9D592F;" d="M399.717,335.251c-2.658-7.561-2.493-7.103,0.439-8.397c2.936-1.296,6.139,2.318,6.139,2.318
			c22.75,24.003,22.922,76.754,22.922,76.754l-2.956,2.343L399.717,335.251L399.717,335.251z"/>
		<g>
			<path style="fill:#9D592F;" d="M381.437,236.629c-6.203,0-13.125,6.872-13.125,27.176c0,15.465,4.64,51.357,10.112,68.28
				c2.205,6.82,10.474,6.045,10.552-5.016c0.008-1.201,3.275-52.465,1.955-74.133C390.122,239.676,385.476,236.629,381.437,236.629z
				"/>
		</g>
		<path style="fill:#9D592F;" d="M389.341,327.939c0.007-8.015,0.003-7.527-3.192-7.779c-3.199-0.251-5.026,4.218-5.026,4.218
			c-13.529,30.177,3.948,81.442,3.948,81.442l4.6,0.103L389.341,327.939L389.341,327.939z"/>
		<path style="fill:#3A88B8;" d="M402.613,215.242c0,0,18.546,27.362,31.434,75.778c0,0-51.781,26.466-86.873-3.041
			c0,0,2.987-27.519,26.627-72.789C373.801,215.19,390.053,221.967,402.613,215.242z"/>
		<polygon style="fill:#2068AA;" points="392.704,413.799 391.946,420.585 389.542,420.359 387.781,416.902 		"/>
		<path style="fill:#9D592F;" d="M431.166,411.003c0,0-0.881-3.117-1.552-5.004c-0.671-1.887-0.768-2.095-0.768-2.095l-1.589-1.274
			c0,0-5.344,6.078-7.148,8.534c-1.804,2.456-5.727,4.848-5.727,4.848s-1.763,4.694,6.523,2.172
			c8.286-2.521,9.013-4.441,9.013-4.441L431.166,411.003z"/>
		<path style="fill:#2068AA;" d="M430.579,409.001c0,0,2.392,5.697,1.309,6.715c-0.809,0.759-3.354,1.117-4.706,1.37
			c-1.352,0.254-2.623,2.86-4.993,3.733c-2.371,0.873-10.735,1.12-12.31,1.129c-1.576,0.009-2.103-0.658-1.094-2.25
			c1.008-1.592,5.599-3.686,5.599-3.686s0.256,1.442,5.157,0.735c4.9-0.707,7.675-3.282,8.531-4.576
			S429.907,409.151,430.579,409.001z"/>
		<polygon style="fill:#2068AA;" points="432.104,413.984 431.347,420.769 428.943,420.543 427.182,417.086 		"/>
		<path style="fill:#0A3454;" d="M372.129,218.434c0,0,1.704-6.05,1.652-9.853l31.059,0.551c0,0-1.949,6.123,0.886,11.165
			C405.726,220.296,381.362,225.753,372.129,218.434z"/>
	</g>
	<g>
		<g>
			<polygon style="fill:#3B5D76;" points="301.042,161.18 327.255,409.914 328.393,420.728 340.84,419.416 313.487,159.868 			"/>
			<polygon style="fill:#0A3454;" points="301.042,161.18 288.599,162.491 315.95,422.042 328.393,420.728 327.255,409.914 			"/>
		</g>
		<g>
			<polygon style="fill:#E5482E;stroke:#E5482E;stroke-width:0.1834;stroke-miterlimit:10;" points="296.484,117.925 
				294.515,129.065 300.737,128.408 			"/>
			<polygon style="fill:#F7F9F8;" points="294.515,129.065 288.599,162.491 313.487,159.868 300.737,128.408 			"/>
		</g>
		<g>
			
				<rect x="312.463" y="384.208" transform="matrix(0.9945 -0.1049 0.1049 0.9945 -38.9425 36.2366)" style="fill:#3A88B8;" width="25.026" height="8.155"/>
		</g>
	</g>
</g>
<g id="DESIGNED_BY_FREEPIK">
	<g>
		<g id="XMLID_319_">
			<g id="XMLID_338_">
				<path id="XMLID_346_" style="fill:#1D262D;" d="M260.104,465.465c-0.432,0.443-0.803,0.931-1.108,1.453l-0.465-0.241
					c-0.067-0.298-0.349-0.503-0.659-0.466c-0.331,0.039-0.568,0.339-0.529,0.67s0.339,0.568,0.67,0.529
					c0.065-0.008,0.127-0.026,0.184-0.052l0.451,0.234c-0.251,0.554-0.433,1.139-0.539,1.744l0.746,0.132
					c0.23-1.306,0.85-2.507,1.792-3.473L260.104,465.465z"/>
				<path id="XMLID_345_" style="fill:#1D262D;" d="M265.592,463.163c-0.171,0-0.341,0.006-0.51,0.017l-0.074-0.626
					c0.188-0.149,0.296-0.389,0.266-0.645c-0.046-0.393-0.402-0.674-0.795-0.628s-0.674,0.402-0.628,0.795
					c0.03,0.254,0.189,0.461,0.405,0.564l0.073,0.624c-0.714,0.116-1.403,0.332-2.06,0.646l0.327,0.684
					c0.934-0.447,1.942-0.673,2.995-0.673c0.496,0,0.993,0.053,1.475,0.158l0.161-0.741
					C266.693,463.222,266.142,463.163,265.592,463.163z"/>
				<path id="XMLID_344_" style="fill:#1D262D;" d="M272.194,465.711c0.331-0.04,0.566-0.341,0.525-0.672
					c-0.04-0.331-0.341-0.566-0.672-0.526c-0.309,0.038-0.535,0.304-0.53,0.609l-0.416,0.363c-0.418-0.43-0.89-0.813-1.408-1.139
					l-0.404,0.641c1.134,0.715,2.021,1.726,2.563,2.925l0.691-0.313c-0.251-0.554-0.568-1.072-0.942-1.545l0.402-0.351
					C272.065,465.716,272.129,465.719,272.194,465.711z"/>
				<path id="XMLID_343_" style="fill:#1D262D;" d="M265.044,473.372c-0.386,0.023-0.775,0.035-1.157,0.035
					c-0.88,0-1.733-0.061-2.478-0.179c-0.39-0.062-0.846-0.155-1.27-0.292c1.046,1.861,3.069,3.125,5.388,3.125
					c2.855,0,5.262-1.916,5.95-4.504c-0.682,0.449-1.505,0.825-2.459,1.123C267.839,473.047,266.464,473.286,265.044,473.372z"/>
				<path id="XMLID_339_" style="fill:#1D262D;" d="M265.592,464.68c-3.352,0-6.08,2.666-6.08,5.943
					c0,0.426,0.046,0.849,0.137,1.261c0.674,0.483,2.706,0.89,5.348,0.731c2.879-0.173,5.297-0.957,6.672-2.159
					c-0.005-0.195-0.021-0.39-0.045-0.582C271.244,466.913,268.65,464.68,265.592,464.68z M263.432,471.194
					c-1.02,0-1.85-0.83-1.85-1.85c0-1.02,0.83-1.85,1.85-1.85c1.02,0,1.85,0.83,1.85,1.85
					C265.282,470.365,264.452,471.194,263.432,471.194z M268.17,470.286c-0.75,0-1.36-0.61-1.36-1.36s0.61-1.361,1.36-1.361
					c0.75,0,1.361,0.61,1.361,1.361S268.92,470.286,268.17,470.286z"/>
			</g>
			<path id="XMLID_336_" style="fill:#1D262D;" d="M281.595,466.547c-0.295-0.116-0.806-0.309-1.382-0.237
				c-0.551,0.069-0.844,0.341-0.844,1.007v0.866h2.228v1.717h-2.228v5.455h-1.932v-5.455h-1.34v-1.717h1.34v-0.888
				c0-1.68,0.896-2.783,2.568-2.783c0.642,0,1.157,0.122,1.59,0.308L281.595,466.547z"/>
			<path id="XMLID_334_" style="fill:#1D262D;" d="M286.298,469.879c-0.177-0.03-0.358-0.046-0.526-0.046
				c-0.896,0-1.51,0.548-1.51,1.614v3.908h-1.932v-7.172h1.873v0.785c0.451-0.673,1.14-0.977,2.021-0.977
				c0.414,0,0.848,0.128,1.094,0.337L286.298,469.879z"/>
			<path id="XMLID_331_" style="fill:#1D262D;" d="M293.965,471.757c0,0.222-0.015,0.489-0.037,0.651h-5.085
				c0.207,1.036,0.933,1.488,1.843,1.488c0.622,0,1.295-0.252,1.813-0.688l1.132,1.243c-0.814,0.748-1.85,1.088-3.057,1.088
				c-2.198,0-3.723-1.495-3.723-3.753c0-2.258,1.48-3.797,3.627-3.797C292.544,467.99,293.958,469.522,293.965,471.757z
				 M288.851,471.091h3.175c-0.177-0.918-0.733-1.436-1.562-1.436C289.554,469.655,289.021,470.203,288.851,471.091z"/>
			<path id="XMLID_328_" style="fill:#1D262D;" d="M301.618,471.757c0,0.222-0.015,0.489-0.037,0.651h-5.085
				c0.207,1.036,0.932,1.488,1.843,1.488c0.622,0,1.295-0.252,1.813-0.688l1.132,1.243c-0.814,0.748-1.85,1.088-3.057,1.088
				c-2.198,0-3.723-1.495-3.723-3.753c0-2.258,1.48-3.797,3.627-3.797C300.197,467.99,301.611,469.522,301.618,471.757z
				 M296.504,471.091h3.175c-0.178-0.918-0.733-1.436-1.562-1.436C297.207,469.655,296.674,470.203,296.504,471.091z"/>
			<path id="XMLID_325_" style="fill:#1D262D;" d="M309.964,471.764c0,2.154-1.495,3.775-3.471,3.775
				c-0.962,0-1.643-0.378-2.109-0.933v3.708h-1.924v-10.133h1.887v0.792c0.466-0.585,1.155-0.984,2.139-0.984
				C308.469,467.99,309.964,469.61,309.964,471.764z M304.287,471.764c0,1.132,0.747,1.976,1.843,1.976
				c1.14,0,1.85-0.881,1.85-1.976c0-1.095-0.71-1.976-1.85-1.976C305.035,469.788,304.287,470.632,304.287,471.764z"/>
			<path id="XMLID_322_" style="fill:#1D262D;" d="M313.068,465.836c0,0.696-0.54,1.229-1.236,1.229
				c-0.696,0-1.229-0.533-1.229-1.229c0-0.696,0.533-1.243,1.229-1.243C312.527,464.592,313.068,465.14,313.068,465.836z
				 M312.809,475.354h-1.932v-7.172h1.932V475.354z"/>
			<path id="XMLID_320_" style="fill:#1D262D;" d="M316.032,470.736l2.702-2.554h2.368l-3.479,3.375l3.501,3.797h-2.376
				l-2.716-2.901v2.901H314.1v-10.658h1.932V470.736z"/>
		</g>
		<g>
			<path style="fill:#1D262D;" d="M184.412,475.289v-1.055c-0.527,0.718-1.391,1.23-2.387,1.23c-1.846,0-3.149-1.406-3.149-3.706
				c0-2.256,1.289-3.721,3.149-3.721c0.952,0,1.816,0.469,2.387,1.245v-3.765h1.099v9.77H184.412z M184.412,473.37v-3.208
				c-0.395-0.615-1.245-1.143-2.124-1.143c-1.421,0-2.27,1.172-2.27,2.739c0,1.567,0.85,2.724,2.27,2.724
				C183.168,474.483,184.017,473.986,184.412,473.37z"/>
			<path style="fill:#1D262D;" d="M186.932,471.744c0-2.051,1.465-3.706,3.486-3.706c2.139,0,3.398,1.67,3.398,3.794v0.279h-5.727
				c0.088,1.333,1.025,2.446,2.549,2.446c0.805,0,1.626-0.322,2.182-0.894l0.527,0.718c-0.703,0.703-1.655,1.084-2.812,1.084
				C188.44,475.465,186.932,473.956,186.932,471.744z M190.403,468.947c-1.509,0-2.256,1.274-2.314,2.358h4.643
				C192.718,470.25,192.015,468.947,190.403,468.947z"/>
			<path style="fill:#1D262D;" d="M194.607,474.351l0.571-0.791c0.469,0.542,1.362,1.011,2.329,1.011c1.084,0,1.67-0.513,1.67-1.216
				c0-1.714-4.38-0.659-4.38-3.281c0-1.098,0.952-2.036,2.636-2.036c1.201,0,2.051,0.454,2.622,1.026l-0.513,0.762
				c-0.424-0.513-1.201-0.894-2.109-0.894c-0.967,0-1.567,0.483-1.567,1.113c0,1.552,4.38,0.527,4.38,3.281
				c0,1.187-0.952,2.138-2.783,2.138C196.306,475.465,195.325,475.113,194.607,474.351z"/>
			<path style="fill:#1D262D;" d="M201.477,466.471c0-0.41,0.337-0.747,0.732-0.747c0.41,0,0.747,0.337,0.747,0.747
				c0,0.41-0.337,0.732-0.747,0.732C201.814,467.203,201.477,466.881,201.477,466.471z M201.667,475.289v-7.075h1.099v7.075H201.667
				z"/>
			<path style="fill:#1D262D;" d="M204.582,477.105l0.556-0.82c0.586,0.703,1.289,0.967,2.3,0.967c1.172,0,2.27-0.571,2.27-2.124
				v-1.011c-0.513,0.718-1.377,1.26-2.373,1.26c-1.845,0-3.149-1.377-3.149-3.662c0-2.27,1.289-3.677,3.149-3.677
				c0.952,0,1.802,0.469,2.373,1.245v-1.069h1.098v6.87c0,2.344-1.641,3.076-3.369,3.076
				C206.237,478.16,205.417,477.926,204.582,477.105z M209.709,473.253v-3.091c-0.381-0.615-1.23-1.143-2.109-1.143
				c-1.421,0-2.27,1.128-2.27,2.695c0,1.553,0.849,2.695,2.27,2.695C208.478,474.41,209.328,473.868,209.709,473.253z"/>
			<path style="fill:#1D262D;" d="M217.413,475.289v-4.629c0-1.245-0.63-1.641-1.582-1.641c-0.865,0-1.685,0.527-2.095,1.099v5.17
				h-1.099v-7.075h1.099v1.025c0.498-0.586,1.464-1.201,2.519-1.201c1.48,0,2.256,0.747,2.256,2.285v4.966H217.413z"/>
			<path style="fill:#1D262D;" d="M219.932,471.744c0-2.051,1.465-3.706,3.486-3.706c2.139,0,3.398,1.67,3.398,3.794v0.279h-5.727
				c0.088,1.333,1.025,2.446,2.549,2.446c0.806,0,1.626-0.322,2.183-0.894l0.527,0.718c-0.703,0.703-1.655,1.084-2.812,1.084
				C221.441,475.465,219.932,473.956,219.932,471.744z M223.404,468.947c-1.509,0-2.256,1.274-2.314,2.358h4.643
				C225.718,470.25,225.015,468.947,223.404,468.947z"/>
			<path style="fill:#1D262D;" d="M233.35,475.289v-1.055c-0.527,0.718-1.392,1.23-2.388,1.23c-1.846,0-3.149-1.406-3.149-3.706
				c0-2.256,1.289-3.721,3.149-3.721c0.952,0,1.817,0.469,2.388,1.245v-3.765h1.098v9.77H233.35z M233.35,473.37v-3.208
				c-0.396-0.615-1.245-1.143-2.124-1.143c-1.421,0-2.27,1.172-2.27,2.739c0,1.567,0.849,2.724,2.27,2.724
				C232.105,474.483,232.954,473.986,233.35,473.37z"/>
			<path style="fill:#1D262D;" d="M239.692,475.289v-9.77h1.098v3.765c0.572-0.776,1.421-1.245,2.388-1.245
				c1.845,0,3.149,1.465,3.149,3.721c0,2.299-1.304,3.706-3.149,3.706c-0.996,0-1.86-0.513-2.388-1.23v1.055H239.692z
				 M242.9,474.483c1.436,0,2.285-1.157,2.285-2.724c0-1.568-0.85-2.739-2.285-2.739c-0.864,0-1.728,0.527-2.109,1.143v3.208
				C241.171,473.986,242.036,474.483,242.9,474.483z"/>
			<path style="fill:#1D262D;" d="M247.528,477.061c0.161,0.073,0.425,0.117,0.601,0.117c0.483,0,0.805-0.161,1.055-0.747
				l0.469-1.069l-2.959-7.148h1.187l2.358,5.8l2.344-5.8h1.201l-3.545,8.51c-0.425,1.025-1.143,1.421-2.08,1.435
				c-0.234,0-0.601-0.044-0.805-0.103L247.528,477.061z"/>
		</g>
	</g>
</g>
</svg>
